<svg version="1.1" id="Layer_1" xmlns="http://www.w3.org/2000/svg" xmlns:xlink="http://www.w3.org/1999/xlink" x="0px" y="0px"
	 width="100%" viewBox="0 0 1024 1024" enable-background="new 0 0 1024 1024" xml:space="preserve">
<path fill="#000000" opacity="1.000000" stroke="none" 
	d="
M507.000000,270.883636 
	C524.497070,270.882843 541.497803,271.081024 558.488831,270.760315 
	C563.571289,270.664368 566.229187,272.561340 568.684509,276.807373 
	C603.375183,336.797913 638.294373,396.656281 673.019348,456.627075 
	C703.402893,509.100159 733.613220,561.673523 763.892090,614.207153 
	C764.622192,615.473877 765.722900,616.641418 765.251892,618.416443 
	C763.790527,619.901428 761.855530,619.286987 760.125732,619.289001 
	C726.464966,619.327820 692.803772,619.250671 659.143616,619.399780 
	C655.104858,619.417664 652.822021,618.044128 650.817261,614.600769 
	C621.315613,563.929321 591.727173,513.308228 562.092346,462.714386 
	C533.972778,414.707367 505.776093,366.745453 477.610931,318.765137 
	C469.347412,304.687927 461.068787,290.619568 452.820251,276.533600 
	C452.077911,275.265900 451.506531,273.898041 450.080536,271.002747 
	C469.556244,270.961700 488.028137,270.922760 507.000000,270.883636 
z"/>
<path fill="#000000" opacity="1.000000" stroke="none" 
	d="
M472.000000,755.207275 
	C427.786743,755.208069 384.073456,755.208069 340.677521,755.208069 
	C339.758057,752.198486 340.976227,750.856384 341.768860,749.480225 
	C359.559906,718.591370 377.456757,687.763184 395.121490,656.802429 
	C397.287506,653.006104 400.118164,652.655762 403.802155,652.657104 
	C527.440125,652.702881 651.078125,652.688110 774.716064,652.718994 
	C778.501770,652.719971 782.338257,652.211426 785.965271,653.124817 
	C786.850708,654.824829 785.786377,655.872986 785.139709,656.976807 
	C766.786011,688.308289 748.354553,719.594604 730.133728,751.003113 
	C727.967041,754.738037 725.150330,755.201355 721.442261,755.199707 
	C638.461487,755.162964 555.480774,755.190857 472.000000,755.207275 
z"/>
<path fill="#000000" opacity="1.000000" stroke="none" 
	d="
M376.166016,623.103394 
	C351.713013,666.856934 327.422424,710.280640 303.389679,753.243286 
	C300.799683,753.542664 300.225983,752.246521 299.529877,751.126099 
	C280.101410,719.855042 260.714539,688.558044 241.183090,657.351379 
	C239.327011,654.385803 239.345810,652.259827 241.135330,649.244568 
	C286.958618,572.034302 332.680847,494.764130 378.404358,417.494781 
	C397.575775,385.096497 416.706116,352.673981 435.877686,320.275818 
	C436.539032,319.158234 437.444031,318.184784 438.167084,317.234009 
	C440.496155,317.484009 440.891144,319.335785 441.680176,320.691345 
	C458.690643,349.916656 475.616180,379.191681 492.726105,408.358551 
	C494.538086,411.447388 493.534943,413.583496 492.104126,416.133148 
	C474.496399,447.510101 456.929474,478.909973 439.345520,510.300262 
	C418.343048,547.793152 397.334320,585.282593 376.166016,623.103394 
z"/>
</svg>