<svg xmlns="http://www.w3.org/2000/svg"
	 width="100%" viewBox="0 0 1185 896">

<path fill="#121211" 
	d="
M408.428925,392.455688 
	C397.737274,411.615356 387.233704,430.456970 376.304321,450.062469 
	C358.594452,421.736176 341.160217,393.850800 323.904083,366.250214 
	C379.544159,271.177856 434.936432,176.528915 490.639435,81.348999 
	C497.327698,92.817390 503.806732,103.812157 510.173096,114.871796 
	C518.622925,129.550797 527.054382,144.241776 535.276733,159.048096 
	C536.098145,160.527237 536.140198,163.239365 535.328247,164.706329 
	C521.426331,189.822281 507.294159,214.810608 493.295502,239.873291 
	C484.718719,255.228775 476.307800,270.676758 467.774963,286.056946 
	C460.052094,299.977203 452.260895,313.859589 444.506989,327.762695 
	C432.540436,349.219208 420.580017,370.679138 408.428925,392.455688 
z"/>
<path fill="#111111" 
	d="
M671.423401,335.146362 
	C665.677734,325.643005 659.804993,316.213776 654.209656,306.622742 
	C635.809082,275.081940 617.502991,243.485992 599.172302,211.904449 
	C582.614197,183.376801 566.069824,154.841125 549.522644,126.307098 
	C535.140747,101.506836 520.754883,76.708870 506.398285,51.893997 
	C505.072083,49.601700 503.944611,47.194401 503.140137,44.444626 
	C534.359741,44.024925 565.164062,44.001102 596.156921,44.230476 
	C596.941589,44.630642 597.537781,44.777603 598.133972,44.924568 
	C598.133972,44.924564 598.044006,44.926479 598.057617,45.352028 
	C598.836304,46.773243 599.601318,47.768909 600.366394,48.764572 
	C600.237427,49.006756 600.108521,49.248943 599.699951,49.765816 
	C599.914429,50.285492 600.408569,50.530487 600.902649,50.775471 
	C605.689636,58.597210 610.644043,66.322212 615.232483,74.258751 
	C629.281128,98.558502 643.202637,122.931839 657.147095,147.291718 
	C665.975891,162.714890 674.723816,178.184418 683.567017,193.599319 
	C702.066162,225.845871 720.628296,258.056335 739.115784,290.309570 
	C747.285889,304.563263 755.337280,318.885071 763.035400,333.565247 
	C734.653198,333.970703 706.678101,333.968018 678.703308,334.045044 
	C676.813354,334.050232 674.925171,334.655823 672.633545,335.028778 
	C671.961731,335.098999 671.692566,335.122650 671.423401,335.146362 
z"/>
<path fill="#121211" 
	d="
M780.004211,365.954926 
	C780.763733,365.954926 781.523254,365.954926 782.852905,365.954926 
	C774.628052,380.051117 766.686401,393.664978 758.741516,407.276978 
	C752.799561,417.457367 746.619202,427.507263 740.968384,437.846710 
	C733.881653,450.813782 734.068481,450.877869 719.114075,450.879150 
	C617.313293,450.887726 515.512512,450.913574 413.711761,450.933838 
	C412.054138,450.934143 410.396484,450.933868 407.783600,450.933868 
	C424.202087,422.403412 440.304321,394.422424 456.848114,366.503113 
	C457.480438,366.784943 457.717224,366.930023 458.291168,367.300110 
	C460.226593,367.733032 461.870789,367.981720 463.515076,367.982056 
	C567.287659,368.001862 671.060242,368.006317 774.832825,367.960327 
	C776.555359,367.959564 778.277588,367.323029 779.998901,366.726105 
	C779.999878,366.297668 780.002075,366.126282 780.004211,365.954926 
z"/>
<path fill="#141414" 
	d="
M927.980713,599.855225 
	C928.538940,601.385010 928.987793,602.544373 929.634827,604.215637 
	C934.575867,588.608948 939.330933,573.570312 944.105530,558.537781 
	C944.607910,556.955994 945.203003,555.402283 945.793274,553.850037 
	C947.169678,550.230835 947.604248,545.259827 950.234497,543.394165 
	C952.801514,541.573425 957.621155,542.911926 961.452026,542.900085 
	C962.600159,542.896484 963.748718,543.015381 965.628479,543.118103 
	C962.863037,551.076050 960.149963,558.679016 957.576660,566.329102 
	C951.325806,584.911560 945.072327,603.493896 939.000793,622.135254 
	C938.089111,624.934448 937.003967,626.278870 933.887024,626.038574 
	C930.249451,625.758057 926.573608,625.973083 922.239380,625.973083 
	C919.100586,616.463745 915.922363,606.911072 912.795959,597.341492 
	C909.733582,587.968262 906.723938,578.577698 902.532166,569.251099 
	C896.564392,587.969421 890.596558,606.687744 884.535339,625.699219 
	C879.507874,625.699219 874.400513,625.699219 868.884644,625.699219 
	C859.559204,598.414856 850.170654,570.945923 840.600159,542.944763 
	C845.837646,542.944763 850.507446,542.610718 855.075439,543.145996 
	C856.466858,543.309082 858.175354,545.671875 858.724976,547.357727 
	C864.339966,564.581543 869.740112,581.875366 875.223694,599.142273 
	C875.566833,600.222900 876.104736,601.241638 877.844727,602.589417 
	C883.985657,582.843201 890.126526,563.097046 896.386047,542.969421 
	C899.568970,542.969421 902.739868,543.195679 905.862915,542.905640 
	C908.982422,542.616028 910.113220,543.990967 910.989319,546.781128 
	C916.515503,564.380737 922.223450,581.923340 927.980713,599.855225 
z"/>
<path fill="#131313" 
	d="
M728.750977,575.894470 
	C732.963745,556.611328 747.723694,543.624329 767.284241,541.861267 
	C782.451904,540.494080 796.348450,543.196289 807.920471,554.205811 
	C827.299622,572.643005 823.662598,606.552612 800.647400,620.106445 
	C782.200195,630.970093 757.746277,629.411194 741.772583,615.536865 
	C729.932434,605.252869 725.927429,591.771606 728.750977,575.894470 
M795.521362,605.030334 
	C800.689026,599.481018 803.771606,592.987610 804.013672,585.356873 
	C804.672791,564.575378 785.456177,550.427917 764.615173,556.530518 
	C754.246277,559.566650 747.452515,566.511841 745.190308,577.208984 
	C742.868225,588.189026 745.275818,597.862183 753.779968,605.792664 
	C763.284363,614.655884 783.079407,616.518982 795.521362,605.030334 
z"/>
<path fill="#141413" 
	d="
M251.163300,544.013672 
	C252.258591,543.638550 253.352463,542.941833 254.449402,542.936951 
	C269.258148,542.871094 284.073608,542.641296 298.874084,543.000488 
	C308.544708,543.235168 317.759766,545.492737 324.133636,553.742615 
	C335.251160,568.132385 329.240448,588.396179 312.137115,594.479919 
	C311.247345,594.796448 310.382141,595.181946 308.776581,595.829102 
	C313.059875,601.104736 317.039368,605.926208 320.928619,610.819397 
	C324.699432,615.563599 328.377625,620.381470 332.673401,625.909424 
	C326.103333,625.909424 320.514343,626.047546 314.942627,625.799194 
	C313.750610,625.745972 312.341278,624.510681 311.507172,623.447205 
	C305.047699,615.211670 298.704926,606.884705 292.461548,598.009705 
	C291.965088,596.656616 291.347656,595.218140 290.698914,595.203857 
	C282.984711,595.034363 275.265778,595.067200 267.549103,595.148499 
	C267.421143,595.149841 267.306519,596.418396 267.185699,597.095581 
	C267.136719,597.261780 267.087769,597.427917 266.516998,597.927368 
	C265.661957,599.796021 265.075836,601.325745 265.041412,602.867798 
	C264.922668,608.184937 264.651642,613.535522 265.097992,618.817627 
	C265.510742,623.702026 263.187195,624.213867 259.239166,624.089905 
	C255.498337,623.972534 252.763947,624.348694 252.844421,618.826782 
	C253.183548,595.557556 253.027634,572.280273 252.912949,549.006653 
	C252.904724,547.339539 251.772781,545.677917 251.163300,544.013672 
M305.809540,558.326660 
	C292.987366,557.450317 280.165192,556.573975 267.032379,555.676392 
	C267.032379,561.311462 267.032379,565.614380 267.032379,569.917297 
	C267.032379,574.355286 267.032379,578.793213 267.032379,583.676697 
	C273.327209,583.676697 279.112732,583.707764 284.897797,583.667603 
	C290.217407,583.630615 295.552216,583.743896 300.851471,583.375671 
	C306.606323,582.975952 311.400665,579.006531 312.691376,574.181946 
	C314.295319,568.186462 312.121002,562.830872 305.809540,558.326660 
M293.383789,553.997559 
	C285.339081,553.997559 277.294373,553.997559 269.249664,553.997559 
	C269.257141,554.211914 269.264618,554.426270 269.272095,554.640625 
	C279.754395,554.640625 290.236664,554.640625 300.718933,554.640625 
	C300.717377,554.426270 300.715820,554.211914 300.714233,553.997559 
	C298.588074,553.997559 296.461914,553.997559 293.383789,553.997559 
z"/>
<path fill="#141414" 
	d="
M433.129944,604.979614 
	C444.789734,612.370483 457.058960,615.149841 470.173645,611.785645 
	C473.628845,610.899292 477.313599,608.586487 479.552368,605.837158 
	C482.714264,601.954041 480.387146,595.897034 475.041351,594.247253 
	C468.750305,592.305847 462.098236,591.551941 455.625244,590.177307 
	C448.974091,588.764771 442.236877,587.600647 435.742584,585.645813 
	C427.456940,583.151794 422.768280,577.327454 422.205139,568.482422 
	C421.648407,559.737000 424.892426,552.802979 432.330719,548.137512 
	C447.639648,538.535278 475.671844,539.878418 490.253784,550.776489 
	C490.634033,551.060669 490.907227,551.488098 491.471466,552.117920 
	C489.068481,555.604736 486.658173,559.102234 483.899445,563.105286 
	C475.764130,557.317383 466.609741,554.950195 456.752655,555.460144 
	C453.438690,555.631592 450.090942,555.915771 446.852448,556.595459 
	C442.238007,557.563904 438.942627,560.311890 438.455811,565.248474 
	C437.908630,570.797363 442.031158,573.002686 446.312225,573.908020 
	C453.953552,575.524048 461.765320,576.315857 469.476776,577.623535 
	C478.383118,579.133972 487.442352,580.738464 492.973724,588.965820 
	C500.812622,600.625366 496.597015,616.233032 483.606201,621.762939 
	C462.352448,630.810303 442.027557,627.814514 422.890991,615.298767 
	C422.195862,614.844116 421.511963,614.372375 420.633453,613.781128 
	C423.495300,610.365723 426.002899,607.492554 428.370209,604.508179 
	C430.097931,602.330139 431.419891,603.415527 433.129944,604.979614 
z"/>
<path fill="#171717" 
	d="
M199.010284,544.971741 
	C211.893539,548.238586 218.832596,557.483276 218.715012,571.223755 
	C218.602356,584.387268 210.892883,594.210510 197.318588,596.779419 
	C189.886215,598.185974 182.122375,597.945007 174.499756,598.207397 
	C169.015869,598.396179 163.518356,598.188904 157.147888,598.130188 
	C155.510803,599.446350 154.158936,600.764404 154.098480,602.139343 
	C153.850082,607.789001 153.726135,613.472900 154.083435,619.110840 
	C154.346558,623.262573 152.715485,624.459778 148.925934,624.026794 
	C147.173584,623.826599 145.379364,623.992676 143.934280,623.992676 
	C143.452484,623.053162 143.177307,622.766663 143.176483,622.479370 
	C143.106552,597.677734 143.017441,572.875793 143.150208,548.075134 
	C143.155716,547.046143 145.264587,545.124268 146.370621,545.140869 
	C163.130478,545.393066 179.886078,545.919312 196.644775,546.286316 
	C197.423309,546.303406 198.221344,545.430298 199.010284,544.971741 
M197.288269,580.944763 
	C202.700394,577.238342 203.293045,571.835083 201.658936,566.274902 
	C200.153198,561.151428 196.230484,557.480530 190.839233,557.272339 
	C179.613312,556.838989 168.358963,557.141296 157.052704,557.141296 
	C157.052704,566.145508 157.052704,575.042969 157.052704,583.913635 
	C168.345337,583.913635 179.293533,584.046326 190.233246,583.800720 
	C192.398666,583.752136 194.531448,582.249939 197.288269,580.944763 
M168.611923,554.000000 
	C166.125259,554.000000 163.638596,554.000000 161.151947,554.000000 
	C161.161667,554.225952 161.171402,554.451843 161.181122,554.677795 
	C170.393845,554.677795 179.606567,554.677795 188.819290,554.677795 
	C188.819839,554.451843 188.820389,554.225952 188.820938,554.000000 
	C182.407471,554.000000 175.994003,554.000000 168.611923,554.000000 
z"/>
<path fill="#0F0F0E" 
	d="
M596.910583,583.984863 
	C596.910583,586.763123 596.910583,589.541321 596.910583,592.658936 
	C580.630798,592.658936 564.744080,592.658936 548.477356,592.658936 
	C548.477356,603.715698 548.477356,614.441223 548.477356,625.937195 
	C543.724731,625.937195 539.329102,625.937195 534.319458,625.681824 
	C533.403015,625.299377 533.100586,625.172363 532.798157,625.045288 
	C532.798157,597.893677 532.798157,570.742065 532.798157,543.241089 
	C555.709717,543.241089 578.787720,543.241089 602.123047,543.241089 
	C602.123047,547.728271 602.123047,552.181885 602.123047,557.158875 
	C584.374390,557.158875 566.649292,557.158875 548.574219,557.158875 
	C548.574219,564.415955 548.574219,571.165649 548.574219,578.671143 
	C550.305786,578.671143 552.229004,578.671265 554.152222,578.671204 
	C567.151428,578.670898 580.151062,578.627014 593.149353,578.737366 
	C594.449890,578.748413 595.742493,579.695496 596.729431,580.786377 
	C596.583557,582.238098 596.747070,583.111450 596.910583,583.984863 
M558.554810,590.983704 
	C570.484192,590.983704 582.413513,590.983704 594.501221,590.983704 
	C594.501221,587.016418 594.501221,583.678894 594.501221,580.336060 
	C579.754028,580.336060 565.480652,580.336060 551.207336,580.336060 
	C564.157349,581.001099 577.107117,581.111877 590.052734,580.929688 
	C593.668579,580.878784 594.073608,582.566650 594.069580,585.492737 
	C594.065613,588.407349 593.686646,590.136536 590.059204,590.063293 
	C579.913208,589.858154 569.760376,589.992432 559.610229,589.992737 
	C556.131897,589.992859 552.653625,589.992798 549.175293,589.992798 
	C549.179260,590.323547 549.183289,590.654236 549.187256,590.984985 
	C551.985046,590.984985 554.782837,590.984985 558.554810,590.983704 
M534.972839,590.509277 
	C534.972839,586.049988 534.972839,581.590637 534.972839,577.131348 
	C534.759033,577.135132 534.545227,577.138916 534.331421,577.142700 
	C534.331421,592.043152 534.331421,606.943665 534.331421,621.844116 
	C534.544495,621.845459 534.757629,621.846802 534.970703,621.848145 
	C534.970703,611.734131 534.970703,601.620117 534.972839,590.509277 
M534.130981,548.627686 
	C534.130981,555.649597 534.130981,562.671448 534.130981,569.693359 
	C534.282654,569.687012 534.434265,569.680664 534.585938,569.674316 
	C534.585938,562.472778 534.585938,555.271240 534.130981,548.627686 
z"/>
<path fill="#171717" 
	d="
M655.981567,610.857788 
	C671.928101,610.857788 687.874634,610.857788 704.110352,610.857788 
	C704.110352,615.392151 704.110352,619.802795 704.110352,624.511658 
	C682.506287,624.511658 661.092346,624.511658 639.253906,624.511658 
	C639.253906,597.613708 639.253906,570.586609 639.253906,543.113586 
	C644.013184,543.113586 648.932861,543.113586 653.790405,543.643799 
	C653.480408,544.456055 653.232483,544.738159 652.687073,545.310425 
	C652.261780,546.243835 652.022949,546.886902 652.022217,547.530273 
	C651.999878,567.119141 651.983643,586.708130 652.039368,606.296814 
	C652.042908,607.528137 652.637390,608.757690 653.344727,609.908936 
	C653.986511,609.758179 654.240540,609.686646 654.494507,609.615173 
	C654.494507,609.615173 654.353333,609.732971 654.276855,610.083252 
	C655.424744,611.286438 656.628235,612.840210 657.876953,612.877441 
	C665.521667,613.105164 673.176697,612.988770 680.828247,612.987915 
	C687.505310,612.987244 694.182312,612.987793 700.859375,612.987793 
	C687.575684,611.991394 674.303711,612.031494 661.032593,611.941223 
	C659.346558,611.929749 657.665100,611.235657 655.981567,610.857788 
M699.752136,621.989624 
	C681.179382,621.989624 662.606689,621.989624 644.033936,621.989624 
	C662.920654,622.961365 681.807983,622.990540 700.694336,622.864075 
	C701.527222,622.858521 702.350525,621.431213 703.178284,620.666199 
	C702.966309,620.454041 702.754272,620.241882 702.542297,620.029724 
	C701.877197,620.660950 701.212097,621.292175 699.752136,621.989624 
z"/>
<path fill="#191919" 
	d="
M466.899719,710.957092 
	C463.811188,711.681213 462.323334,716.759644 457.607056,713.629150 
	C455.134735,709.642395 454.523468,712.139771 453.728455,713.881714 
	C452.718567,714.943970 451.708710,716.006226 450.289246,717.499268 
	C448.659729,714.429504 447.183441,711.648376 445.707123,708.867188 
	C445.435944,708.954529 445.164764,709.041870 444.893585,709.129150 
	C444.893585,722.496704 444.893585,735.864258 444.893585,749.641479 
	C442.126251,749.641479 439.733826,749.641479 436.761536,749.641479 
	C436.761536,738.269592 436.761536,726.713135 436.761536,715.156616 
	C436.407288,715.066406 436.053040,714.976135 435.698792,714.885925 
	C433.162476,720.437561 430.626190,725.989258 427.928650,731.893799 
	C424.074677,727.431396 422.913116,723.947937 425.754028,718.591736 
	C430.062958,710.467834 432.898529,701.562500 436.766357,691.982727 
	C432.048920,691.982727 428.696045,691.982727 425.175232,691.982727 
	C425.175232,689.118103 425.175232,686.867615 425.175232,684.197266 
	C429.002594,684.197266 432.591644,684.197266 436.590424,684.197266 
	C436.590424,678.049255 436.590424,672.312805 436.590424,666.292236 
	C439.411621,666.292236 441.812286,666.292236 444.682434,666.292236 
	C444.682434,672.207458 444.682434,677.960876 444.682434,683.201904 
	C447.709198,685.891724 453.179077,680.561340 454.021088,687.962769 
	C453.121246,689.792053 452.383820,691.438354 451.343231,691.659912 
	C449.221680,692.111389 446.936737,691.795044 444.719116,691.795044 
	C444.424469,692.276489 444.129852,692.757935 443.835236,693.239380 
	C447.390503,698.843262 450.945770,704.447144 454.907166,710.691223 
	C460.418518,706.314209 465.292999,702.443054 470.764252,698.097961 
	C472.081268,698.560120 474.218933,699.310303 477.434448,700.438660 
	C473.524597,704.342468 470.212158,707.649780 466.899719,710.957092 
z"/>
<path fill="#171717" 
	d="
M658.007812,686.979675 
	C662.658386,692.795349 667.308960,698.611084 672.267273,704.811584 
	C669.916809,706.467896 667.932800,707.865967 666.040588,709.199341 
	C665.525940,708.983337 665.064392,708.938843 664.966919,708.726929 
	C662.184265,702.673828 657.080200,702.958984 651.644165,703.581482 
	C640.900269,704.811890 630.132141,705.831482 619.371582,706.913818 
	C618.417480,707.009766 617.445374,706.926575 616.345581,706.926575 
	C615.979370,704.477539 615.665100,702.375854 615.350830,700.274109 
	C615.973999,700.860718 616.597168,701.447266 617.220276,702.033875 
	C621.724854,696.975403 626.229370,691.916931 630.733887,686.858398 
	C630.427185,686.331909 630.120544,685.805420 629.813843,685.278931 
	C624.315369,685.278931 618.816895,685.278931 613.128906,685.278931 
	C612.905090,682.409302 612.728943,680.151428 612.518188,677.449036 
	C621.128845,677.449036 629.373352,677.449036 638.257019,677.449036 
	C637.063110,673.820801 636.054138,670.754700 634.939087,667.366150 
	C637.633301,666.760864 639.994141,666.230530 642.633606,665.637573 
	C643.736450,668.159912 645.178528,670.330017 645.607605,672.684753 
	C646.391479,676.987061 648.908386,677.741943 652.724426,677.599670 
	C659.008484,677.365417 665.307617,677.536133 671.923096,677.536133 
	C671.923096,680.015198 671.923096,682.256897 671.923096,685.101807 
	C667.505432,685.101807 663.221863,685.101807 658.019653,685.078918 
	C652.459106,685.060974 647.811401,684.937561 643.178711,685.146790 
	C641.734314,685.212036 639.915344,685.792358 638.983765,686.799377 
	C635.798157,690.242615 632.930908,693.980469 629.472839,698.175354 
	C637.991882,697.522949 646.056702,696.905334 654.965454,696.223145 
	C652.813416,693.479736 651.337708,691.598572 649.270447,688.963196 
	C652.719482,688.180237 655.363647,687.579956 658.007812,686.979675 
z"/>
<path fill="#171717" 
	d="
M503.223816,717.014099 
	C499.399231,723.453430 495.574615,729.892761 491.455505,736.827881 
	C497.492493,738.856079 504.357422,741.162415 511.231903,743.471985 
	C507.608948,750.741333 507.566895,750.864990 500.334656,748.405273 
	C495.784729,746.857910 491.179382,745.246338 486.986877,742.953979 
	C484.124054,741.388489 482.085571,741.636475 479.222168,742.770508 
	C472.465118,745.446533 465.571228,747.943481 458.516632,749.583679 
	C456.771088,749.989563 454.201416,746.850769 451.128418,744.733704 
	C460.625397,741.729065 468.734650,739.163513 477.338684,736.441406 
	C473.909424,732.784119 471.135468,729.825684 468.358795,726.864441 
	C459.092926,733.861267 461.022919,733.763611 455.483398,727.689636 
	C460.260315,723.337524 465.033356,718.988892 470.219666,714.193848 
	C472.253998,711.506042 473.875061,709.264587 475.479156,707.046631 
	C477.967834,707.559998 480.202881,708.020996 482.639191,708.523560 
	C481.856934,710.358093 481.185883,711.931824 480.227020,714.180542 
	C485.593384,714.180542 490.358826,713.852539 495.049164,714.304382 
	C497.835205,714.572815 500.502899,716.069580 503.223816,717.014099 
M485.221619,729.803711 
	C487.577698,727.050598 489.933807,724.297485 492.504303,721.293823 
	C485.895691,721.293823 480.276520,721.293823 473.384064,721.293823 
	C476.883942,724.970886 479.414093,727.752502 482.123566,730.346741 
	C482.544434,730.749695 483.784485,730.297119 485.221619,729.803711 
z"/>
<path fill="#1E1E1F" 
	d="
M787.010132,811.355103 
	C791.302185,811.340332 795.102783,811.340332 799.071777,811.340332 
	C799.961487,814.239441 799.727112,815.852173 796.190369,815.759460 
	C789.704773,815.589417 783.211426,815.740051 776.723022,815.640991 
	C773.762634,815.595886 771.847534,816.474304 771.947876,820.353149 
	C779.144226,820.353149 786.364868,820.353149 794.033752,820.353149 
	C794.033752,829.176270 794.043579,837.459595 794.029480,845.742920 
	C794.022888,849.600708 791.443542,850.293640 788.314270,850.398926 
	C785.453491,850.495117 782.282410,851.189575 782.694763,846.592529 
	C784.910889,846.081909 787.260620,845.785645 789.356140,844.892944 
	C789.910461,844.656738 789.681946,842.582764 789.850220,841.001648 
	C783.385925,841.001648 777.440857,841.001648 770.764221,841.001648 
	C770.637390,843.793030 770.498535,846.848633 770.344299,850.244019 
	C768.801453,850.244019 767.441345,850.244019 765.828857,850.244019 
	C765.828857,843.109497 765.828857,836.179932 765.828857,828.127258 
	C762.982361,830.584229 760.806885,832.461975 758.289307,834.635071 
	C757.348450,833.460938 756.489319,832.388855 755.820007,831.553589 
	C760.182495,826.463074 764.316589,821.638977 769.376648,815.734497 
	C764.206665,815.734497 760.655640,815.734497 757.150696,815.734497 
	C756.021606,812.644653 756.507812,811.188232 759.721802,811.374573 
	C761.876648,811.499634 764.051392,811.261353 766.209290,811.359741 
	C768.913696,811.482971 770.910645,811.168701 771.690125,807.847717 
	C771.969482,806.657654 774.341370,805.958679 776.719971,804.408813 
	C776.351135,807.707764 776.174805,809.285217 775.941711,811.369934 
	C779.647339,811.369934 783.083008,811.369934 787.010132,811.355103 
M770.275513,825.772583 
	C770.967896,826.794556 771.623779,828.671448 772.358521,828.702820 
	C778.096497,828.947876 783.849731,828.838440 789.598206,828.838440 
	C789.877441,828.363525 790.156677,827.888672 790.435852,827.413757 
	C789.419006,826.499451 788.422424,824.825500 787.381836,824.797729 
	C781.816406,824.648865 776.239929,824.910706 770.275513,825.772583 
M777.604370,832.749084 
	C776.110168,832.758911 774.564636,832.538086 773.138916,832.855530 
	C772.098938,833.087097 771.216858,834.027771 770.264465,834.652405 
	C771.130798,835.353943 771.966919,836.614319 772.868530,836.663025 
	C777.505981,836.913513 782.165894,836.987854 786.804260,836.795044 
	C787.816406,836.752991 788.772766,835.369202 789.754822,834.603394 
	C788.680298,833.946838 787.649536,832.833435 786.522461,832.725464 
	C783.893982,832.473755 781.219177,832.705505 777.604370,832.749084 
z"/>
<path fill="#2D2D2D" 
	d="
M307.000000,710.019592 
	C251.525879,710.034302 196.551743,710.049622 141.577621,710.063904 
	C140.244980,710.064270 138.845612,710.298828 137.602600,709.961975 
	C136.741776,709.728638 136.096481,708.699890 135.354858,708.026611 
	C136.086960,707.567688 136.767929,706.897644 137.564468,706.704773 
	C138.507416,706.476379 139.550064,706.664246 140.549500,706.664001 
	C210.683029,706.649902 280.816559,706.627563 350.950012,706.686829 
	C352.080536,706.687805 353.210205,707.687805 354.340271,708.221558 
	C353.220001,708.822754 352.103882,709.938171 350.978912,709.947205 
	C336.486664,710.063416 321.993164,710.021790 307.000000,710.019592 
z"/>
<path fill="#2D2D2D" 
	d="
M887.000000,710.018311 
	C842.694519,710.032166 798.888977,710.046875 755.083496,710.060547 
	C753.751038,710.060974 752.375122,710.253418 751.100586,709.979126 
	C750.167786,709.778381 749.368408,708.958069 748.509521,708.413879 
	C749.302368,707.826599 750.028137,706.902710 750.903259,706.728149 
	C752.346436,706.440491 753.886108,706.630798 755.385132,706.630676 
	C823.508484,706.625732 891.631897,706.622009 959.755249,706.618164 
	C962.054688,706.618042 964.354126,706.618164 968.561768,706.618164 
	C966.778076,708.278870 965.934753,709.750427 964.937622,709.863281 
	C961.976562,710.198486 958.954834,710.006165 955.956848,710.006958 
	C933.137878,710.012695 910.318970,710.015320 887.000000,710.018311 
z"/>
<path fill="#232323" 
	d="
M326.295837,827.059570 
	C324.440704,826.856750 322.354919,827.127747 320.775421,826.358826 
	C316.685669,824.367737 314.882080,824.962708 313.084747,830.005920 
	C322.987549,830.005920 332.731689,830.005920 342.764587,830.005920 
	C342.764587,836.899414 342.764587,843.315491 342.764587,850.683105 
	C340.106232,850.003479 337.735443,848.821838 335.414215,848.912292 
	C328.588989,849.178101 321.788910,850.079773 314.963623,850.367310 
	C314.042816,850.406067 312.258148,848.393250 312.197357,847.259460 
	C311.904541,841.799438 312.065613,836.315002 312.065613,831.052673 
	C309.473267,830.481201 307.339203,830.010681 304.430359,829.369446 
	C308.017731,826.453613 310.623993,824.335266 313.230255,822.216919 
	C313.106537,821.771606 312.982788,821.326294 312.859070,820.881042 
	C310.367096,820.634277 307.875122,820.387512 304.398071,820.043213 
	C306.432404,814.887390 308.304077,810.143677 310.805542,803.803955 
	C314.452545,811.610901 320.759064,808.494324 325.961121,809.418945 
	C326.171112,809.918762 326.381104,810.418518 326.591095,810.918274 
	C325.474579,811.571716 324.278076,812.881897 323.256348,812.757507 
	C319.980225,812.358276 319.004364,813.671143 319.481659,817.147949 
	C321.583801,817.147949 323.712311,817.147949 326.421021,817.551453 
	C326.723389,822.846497 321.961151,818.527588 320.350952,821.460876 
	C321.800781,822.369080 323.400238,823.156250 324.715210,824.277161 
	C325.478241,824.927551 325.784180,826.114258 326.295837,827.059570 
M338.086334,841.628235 
	C331.493835,841.433777 324.900818,841.140076 318.309601,841.176392 
	C317.526886,841.180664 316.754089,842.987549 315.216675,844.908447 
	C323.142609,844.908447 329.434570,845.001953 335.717316,844.803955 
	C336.621216,844.775452 337.480835,843.342773 338.086334,841.628235 
M336.386108,833.781982 
	C329.806854,833.781982 323.227600,833.781982 316.648315,833.781982 
	C316.598694,834.486755 316.549042,835.191528 316.499390,835.896301 
	C323.258759,839.001343 330.691620,836.413879 338.468994,837.625549 
	C337.945984,835.859924 337.655640,834.879700 336.386108,833.781982 
z"/>
<path fill="#141414" 
	d="
M478.139526,673.002625 
	C478.254669,670.855469 478.369781,668.708374 478.503448,666.214966 
	C480.938171,666.214966 483.332001,666.214966 486.360168,666.214966 
	C486.519073,668.873413 486.682037,671.600281 486.864563,674.654053 
	C492.940735,674.654053 498.880463,674.654053 505.180664,674.654053 
	C505.180664,677.036987 505.180664,679.089905 505.180664,681.718628 
	C499.080109,681.718628 493.029358,681.718628 486.782593,681.718628 
	C486.782593,684.525085 486.782593,686.758728 486.782593,689.395325 
	C494.496979,689.395325 501.897583,689.395325 509.703644,689.395325 
	C509.703644,691.845459 509.703644,693.902161 509.703644,696.567017 
	C504.784241,696.567017 499.703583,696.567017 494.030396,696.327515 
	C492.692322,696.207581 491.946808,696.327087 490.727509,696.524902 
	C478.864441,696.603271 467.475128,696.603271 455.875610,696.603271 
	C455.875610,694.079956 455.875610,692.152466 455.875610,689.708130 
	C462.198029,689.708130 468.302155,689.802307 474.398956,689.632324 
	C475.694275,689.596252 476.962769,688.596863 478.243622,688.041199 
	C478.243622,686.152283 478.243622,684.263367 478.243622,681.832764 
	C475.334076,681.832764 472.620941,681.832764 469.032471,681.809692 
	C466.101959,681.888611 464.046722,681.990662 461.991516,682.092651 
	C461.171753,679.982361 460.351990,677.872192 459.163147,674.812012 
	C465.687927,674.812012 470.868073,674.812012 476.858673,674.781494 
	C477.825928,674.168152 477.982727,673.585388 478.139526,673.002625 
M489.594330,694.977051 
	C490.057495,694.855042 490.520630,694.733093 492.281647,694.269287 
	C481.663055,694.269287 472.364258,694.269287 463.065460,694.269287 
	C463.063202,694.506714 463.060974,694.744080 463.058716,694.981506 
	C471.632874,694.981506 480.207031,694.981506 489.594330,694.977051 
M501.520081,694.901489 
	C501.764313,694.760681 502.008545,694.619873 502.252747,694.479004 
	C502.001129,694.348633 501.700409,694.067505 501.511292,694.129028 
	C501.310242,694.194519 501.214996,694.584839 501.520081,694.901489 
z"/>
<path fill="#EDEDED" 
	d="
M477.758606,688.031494 
	C476.962769,688.596863 475.694275,689.596252 474.398956,689.632324 
	C468.302155,689.802307 462.198029,689.708130 455.875610,689.708130 
	C455.875610,692.152466 455.875610,694.079956 455.875610,696.603271 
	C467.475128,696.603271 478.864441,696.603271 490.659424,696.901123 
	C490.041199,698.641907 489.017334,700.084900 487.978119,701.549438 
	C493.765350,705.876099 499.389038,710.080505 505.012756,714.284851 
	C504.622650,715.163818 504.232544,716.042786 503.533142,716.967896 
	C500.502899,716.069580 497.835205,714.572815 495.049164,714.304382 
	C490.358826,713.852539 485.593384,714.180542 480.227020,714.180542 
	C481.185883,711.931824 481.856934,710.358093 482.639191,708.523560 
	C480.202881,708.020996 477.967834,707.559998 475.479156,707.046631 
	C473.875061,709.264587 472.253998,711.506042 470.315338,713.870972 
	C469.216492,713.001465 468.435242,712.008301 467.276855,710.986145 
	C470.212158,707.649780 473.524597,704.342468 477.434448,700.438660 
	C474.218933,699.310303 472.081268,698.560120 470.764252,698.097961 
	C465.292999,702.443054 460.418518,706.314209 454.907166,710.691223 
	C450.945770,704.447144 447.390503,698.843262 443.835236,693.239380 
	C444.129852,692.757935 444.424469,692.276489 444.719116,691.795044 
	C446.936737,691.795044 449.221680,692.111389 451.343231,691.659912 
	C452.383820,691.438354 453.121246,689.792053 454.129517,688.383423 
	C461.933350,687.991516 469.603485,688.006653 477.758606,688.031494 
z"/>
<path fill="#232323" 
	d="
M498.995605,810.452515 
	C504.474060,810.449158 509.453979,810.449158 514.877197,810.449158 
	C515.038452,811.929810 515.189209,813.314270 515.384216,815.104858 
	C509.704254,815.104858 504.439148,815.104858 498.832581,815.104858 
	C498.832581,824.197510 498.832581,832.931152 498.832581,842.042236 
	C505.188782,842.042236 511.441132,842.042236 517.987061,842.042236 
	C517.987061,843.824341 517.987061,845.233643 517.987061,846.845947 
	C503.717102,846.845947 489.621063,846.845947 475.021667,846.845947 
	C474.875519,845.504822 474.727539,844.146545 474.519684,842.238953 
	C480.848938,842.238953 486.737335,842.238953 492.954742,842.238953 
	C492.954742,833.023621 492.954742,824.304871 492.954742,815.223083 
	C487.753479,815.223083 482.653473,815.223083 477.603149,815.223083 
	C476.078125,811.733337 476.921570,810.330933 480.524353,810.413635 
	C486.512421,810.551147 492.505890,810.454163 498.995605,810.452515 
z"/>
<path fill="#1E1E1F" 
	d="
M716.099854,815.049072 
	C717.727905,814.382507 719.304626,813.449646 720.998352,813.123291 
	C722.731506,812.789185 724.579163,813.049316 726.798767,813.049316 
	C726.972290,810.431152 727.121277,808.184082 727.293335,805.588928 
	C734.538269,803.925110 730.053955,811.114990 732.835693,812.536621 
	C735.566711,814.947937 741.625061,809.445618 743.200439,817.029053 
	C739.213135,817.029053 735.941101,817.029053 732.301575,817.029053 
	C732.301575,819.261536 732.301575,821.136169 732.301575,823.390198 
	C733.579346,823.552246 734.833252,823.816711 736.093750,823.853638 
	C742.886169,824.052734 743.140381,824.211243 740.138245,830.519043 
	C738.450562,834.065125 735.959473,837.228760 733.466858,841.134155 
	C736.814453,842.956299 740.250305,844.826416 743.949829,846.840149 
	C743.316772,849.814331 741.957153,851.372742 738.643616,849.422363 
	C738.501770,849.338928 738.309875,849.328247 738.185913,849.228333 
	C732.315857,844.501404 726.546326,844.074585 720.312073,848.883484 
	C718.045410,850.631836 714.819397,851.285156 714.516663,846.335144 
	C718.044800,844.776855 721.641968,843.188049 725.465698,841.499146 
	C723.390076,837.721924 721.404907,834.109314 719.151611,829.892639 
	C718.237671,827.707764 717.591797,826.127014 716.868042,824.355469 
	C720.593689,824.169067 723.695129,824.013916 726.789978,823.859070 
	C726.789978,821.413391 726.789978,819.380737 726.789978,817.099487 
	C723.782654,817.099487 721.130310,817.265930 718.520508,817.005432 
	C717.657166,816.919128 716.903625,815.732544 716.099854,815.049072 
M732.180420,834.679688 
	C733.429871,832.646118 734.679321,830.612488 736.232422,828.084717 
	C731.432434,828.084717 727.454773,828.084717 722.892273,828.084717 
	C724.373413,830.661255 725.596558,832.773071 726.803955,834.893860 
	C728.271851,837.472046 729.919189,837.541138 732.180420,834.679688 
z"/>
<path fill="#1E1E1F" 
	d="
M211.731567,818.502258 
	C218.699295,818.502258 225.667023,818.502258 233.267288,818.502258 
	C233.267288,820.901306 232.832031,823.111877 233.389313,825.034729 
	C233.950333,826.970459 236.356918,828.623657 236.349823,830.394287 
	C236.343811,831.890869 233.577591,833.203125 232.925156,834.933350 
	C232.513412,836.025269 233.696167,837.754089 234.252914,839.161987 
	C234.578583,839.985474 235.370483,840.727112 235.404709,841.528931 
	C235.429535,842.110596 234.665741,842.888794 234.064331,843.307617 
	C230.320023,845.914978 228.833328,852.356934 222.322433,850.288513 
	C220.966141,849.857544 219.619812,849.395569 218.268921,848.947815 
	C218.880753,848.311584 219.492584,847.675293 220.104416,847.039001 
	C222.481537,846.387146 224.858658,845.735229 227.235779,845.083313 
	C227.117859,844.518311 226.999939,843.953308 226.882019,843.388306 
	C220.359818,843.388306 213.837616,843.388306 206.692795,843.388306 
	C207.316177,839.974609 207.813141,837.253235 208.577515,833.813232 
	C207.647598,832.865723 206.450256,832.636780 205.252930,832.407837 
	C204.821960,831.483398 204.390991,830.559021 204.436111,829.361694 
	C205.529999,828.953674 206.147797,828.818604 206.765594,828.683472 
	C207.606583,826.686462 208.447540,824.689514 209.587479,821.974976 
	C210.501495,820.339050 211.116531,819.420654 211.731567,818.502258 
M228.729004,823.063171 
	C226.256027,822.818237 223.783035,822.573303 221.310059,822.328430 
	C223.637772,824.749634 223.647522,829.921265 229.040115,828.281128 
	C229.040115,826.718506 229.040115,825.275940 228.729004,823.063171 
M213.148193,823.808044 
	C213.060867,825.227539 212.973557,826.647095 212.869492,828.338867 
	C215.470856,828.338867 217.626007,828.338867 220.245010,828.338867 
	C218.605515,825.264221 217.950836,821.814697 213.148193,823.808044 
M217.095917,834.948730 
	C215.768875,834.090210 214.441833,833.231628 212.413239,831.919128 
	C212.165161,835.217102 212.034454,836.954651 211.883484,838.961609 
	C214.709839,838.961609 217.206467,838.961609 220.502640,838.961609 
	C219.175797,837.481201 218.354706,836.565002 217.095917,834.948730 
M228.112900,837.192444 
	C228.112900,835.796387 228.112900,834.400330 228.112900,832.840576 
	C225.430588,832.840576 223.215302,832.840576 220.459595,832.840576 
	C221.730347,834.829102 222.480881,836.755493 223.873520,837.901855 
	C224.713684,838.593384 226.551895,838.072388 228.112900,837.192444 
z"/>
<path fill="#1E1E1F" 
	d="
M173.749298,843.223511 
	C175.700165,843.217468 177.187256,843.217468 179.157822,843.217468 
	C179.292511,844.776489 179.424438,846.303406 179.568314,847.968750 
	C164.901306,847.968750 150.795746,847.968750 136.487488,847.968750 
	C135.426376,844.777954 135.975754,843.148499 139.605789,843.261841 
	C143.919601,843.396606 148.240845,843.293518 153.054901,843.293518 
	C153.054901,830.923279 153.054901,818.703308 153.054901,806.176697 
	C154.949646,806.024353 156.375595,805.909668 158.278900,805.756592 
	C158.278900,810.646057 158.278900,815.227905 158.278900,820.390747 
	C164.278152,820.390747 169.849655,820.390747 175.626755,820.390747 
	C175.780792,822.217224 175.887268,823.479736 176.040161,825.292786 
	C170.193832,825.292786 164.637085,825.292786 158.702225,825.292786 
	C158.702225,831.389526 158.702225,836.973694 158.702225,843.229614 
	C163.452194,843.229614 168.368866,843.229614 173.749298,843.223511 
z"/>
<path fill="#232323" 
	d="
M611.388245,817.796753 
	C611.376831,814.334656 611.164001,811.317871 611.474243,808.355774 
	C611.589722,807.252686 612.928101,806.277710 613.708862,805.244324 
	C614.505371,806.237122 615.576660,807.121765 616.021973,808.252869 
	C616.478638,809.412476 616.323059,810.813110 616.420593,811.937317 
	C620.690735,814.083313 624.421265,805.864929 628.786682,811.815002 
	C625.644836,816.327332 615.713867,812.650818 616.317932,821.692444 
	C624.693665,823.646851 625.927795,823.212524 628.915771,816.200256 
	C629.942078,818.819397 631.316772,820.582275 630.904541,821.664795 
	C630.200684,823.513184 628.578491,826.018799 626.981262,826.317078 
	C623.295532,827.005371 619.393555,826.535645 615.243591,826.535645 
	C615.682861,829.331421 616.030762,831.545715 616.546265,834.827026 
	C619.967102,833.602356 623.208923,832.441772 626.895386,831.121948 
	C627.386353,831.651062 628.345276,832.684509 629.833435,834.288269 
	C626.643005,835.429504 624.076904,836.444275 621.450012,837.264893 
	C617.326538,838.553101 614.477661,840.495544 616.682556,845.464478 
	C624.820618,847.341187 626.321960,846.665894 628.202576,838.864258 
	C629.628723,841.006592 631.253662,842.342590 631.249939,843.673950 
	C631.242188,846.378967 631.092651,849.750610 627.171204,849.960693 
	C623.360962,850.164978 619.452026,850.364136 615.741394,849.699646 
	C614.220642,849.427368 612.167297,846.989258 611.983215,845.353271 
	C611.427917,840.418213 611.534119,835.388550 611.705139,830.406921 
	C611.744812,829.252075 613.067932,828.141357 613.197449,827.941345 
	C612.498474,824.189270 611.946472,821.226501 611.388245,817.796753 
z"/>
<path fill="#171717" 
	d="
M854.029114,830.861816 
	C854.584778,831.660217 855.140503,832.458557 855.932800,833.596985 
	C853.706665,835.286621 851.527527,836.940552 848.082581,839.555237 
	C851.135071,841.963745 854.023865,844.243103 857.188477,846.740051 
	C855.910156,848.077332 854.942139,849.090088 852.781860,851.349976 
	C850.656189,848.617676 848.739563,846.153992 846.415100,843.189941 
	C844.429993,839.245483 843.013550,835.713623 841.203918,832.396301 
	C840.364746,830.857849 838.760193,829.736938 837.502625,828.426697 
	C837.130310,828.709351 836.757996,828.992004 836.385681,829.274658 
	C836.385681,834.174194 836.385681,839.073730 836.385681,843.790894 
	C839.147766,845.169312 842.595825,840.251526 844.722229,845.085571 
	C844.037720,845.720398 843.353210,846.355225 841.999268,847.136841 
	C838.886292,848.187988 836.442810,849.092407 833.999329,849.996826 
	C831.274475,850.590881 830.253601,849.074158 830.441284,846.736267 
	C830.684143,843.712097 831.273254,840.715759 831.719849,836.929321 
	C831.783691,826.759705 831.841064,817.368286 831.898376,807.976807 
	C835.606873,807.779968 839.315308,807.583191 843.888367,807.449951 
	C847.621948,807.976807 850.490967,808.440063 853.359985,808.903259 
	C853.330017,815.300842 853.300049,821.698364 852.715332,828.583984 
	C849.620483,829.072083 847.080444,829.072083 843.772888,829.072083 
	C844.863403,831.787292 845.585205,833.584412 846.404541,835.624451 
	C849.101624,833.939758 851.565369,832.400818 854.029114,830.861816 
M841.612549,811.304443 
	C839.855164,811.304443 838.097778,811.304443 836.000793,811.304443 
	C836.172913,813.421143 836.287415,814.829895 836.401978,816.239014 
	C840.824951,816.239014 844.880310,816.239014 848.956726,816.239014 
	C850.335144,809.365967 845.315308,811.902283 841.612549,811.304443 
M844.378052,820.111938 
	C841.762634,820.111938 839.147217,820.111938 836.451233,820.111938 
	C836.451233,822.117432 836.451233,823.631958 836.451233,824.971802 
	C840.929810,824.971802 845.003906,824.971802 848.920837,824.971802 
	C849.867676,821.311157 848.754944,819.723633 844.378052,820.111938 
z"/>
<path fill="#1E1E1F" 
	d="
M271.009521,842.691162 
	C271.550354,841.242249 272.537598,839.800110 272.559509,838.343384 
	C272.701080,828.930237 272.632019,819.513916 272.632019,809.925476 
	C278.979584,809.925476 284.713745,809.925476 290.716003,809.925476 
	C290.716003,822.666992 290.716003,835.196655 290.716003,848.948486 
	C284.648468,846.521790 278.615234,842.146179 273.549316,851.234802 
	C273.454681,850.481323 273.360016,849.727844 273.265381,848.974365 
	C272.891296,846.768250 272.517181,844.562195 271.590027,842.375488 
	C271.036926,842.394836 271.009491,842.691162 271.009521,842.691162 
M286.043732,838.301819 
	C286.043732,830.220764 286.043732,822.139709 286.043732,813.679382 
	C282.588745,813.838440 280.032562,813.956177 277.445068,814.075317 
	C277.445068,823.371765 277.445068,832.084534 277.445068,842.127625 
	C280.801575,841.006287 283.417725,840.132324 286.043732,838.301819 
z"/>
<path fill="#1C1C1C" 
	d="
M436.288666,817.917725 
	C436.679291,813.851318 437.008118,810.215271 437.369904,806.215088 
	C438.589783,806.067932 439.974945,805.900818 440.297638,805.861877 
	C442.312439,813.662292 443.738220,821.268921 446.287140,828.478394 
	C448.966309,836.056335 454.532379,841.622070 461.638672,845.356201 
	C459.986633,850.402710 458.576660,851.207336 455.393616,847.865295 
	C450.654755,842.889587 446.617249,837.236389 442.401123,831.778870 
	C441.324219,830.384888 440.697998,828.642700 439.582977,826.525513 
	C436.300995,837.008423 430.415436,844.695312 421.511963,850.195862 
	C420.919067,849.760620 420.347839,849.430542 419.889679,848.984375 
	C419.183838,848.296814 418.555481,847.529724 417.524231,846.386108 
	C428.364777,839.985901 434.103119,830.328247 436.288666,817.917725 
z"/>
<path fill="#1C1C1C" 
	d="
M550.664978,830.098267 
	C556.288208,830.098267 561.911499,830.098267 567.859863,830.098267 
	C567.859863,836.849426 567.859863,843.383423 567.859863,849.624207 
	C557.614746,849.624207 547.447693,849.624207 536.995178,849.624207 
	C536.995178,843.436340 536.995178,837.000000 537.416504,830.291443 
	C537.837891,830.019226 537.962402,830.012695 538.424683,829.988647 
	C542.007141,830.000061 545.127258,830.035522 548.549683,830.062744 
	C549.456360,830.069092 550.060669,830.083679 550.664978,830.098267 
M560.059998,844.960022 
	C561.259277,844.270447 562.458618,843.580811 563.657898,842.891174 
	C562.575134,842.270386 561.513367,841.160583 560.405945,841.112976 
	C555.443726,840.899475 550.463379,840.859741 545.501282,841.054504 
	C544.184326,841.106140 542.908813,842.214172 541.614258,842.837219 
	C542.981628,843.515320 544.317932,844.692017 545.722046,844.779297 
	C550.179993,845.056274 554.663269,844.927124 560.059998,844.960022 
M542.722961,833.898132 
	C540.783081,836.769836 542.583374,837.189880 544.913574,837.196411 
	C550.865234,837.213013 556.816956,837.201904 562.768677,837.201904 
	C563.038330,836.790894 563.307983,836.379883 563.577637,835.968933 
	C562.445923,835.229431 561.336548,833.895447 560.178589,833.851807 
	C554.687622,833.644714 549.183472,833.789612 542.722961,833.898132 
z"/>
<path fill="#1E1E1F" 
	d="
M656.957397,825.693848 
	C658.937439,828.091919 662.931335,829.754761 660.013000,834.479492 
	C658.640625,833.261108 657.548584,832.291565 655.692505,830.643677 
	C655.692505,837.634277 655.692505,843.653748 655.692505,849.666687 
	C652.127502,851.121521 650.661987,850.390747 650.830383,846.751648 
	C651.002380,843.034790 650.868408,839.303650 650.868408,835.578796 
	C650.460999,835.469299 650.053528,835.359802 649.646118,835.250305 
	C648.047913,837.351318 646.449646,839.452393 644.199646,842.410339 
	C641.498108,834.306030 649.621155,830.504395 649.486694,823.996826 
	C647.490173,823.684509 645.431580,823.362488 642.987000,822.980042 
	C642.672485,816.251953 648.715210,820.765869 650.695679,818.160400 
	C650.695679,816.769043 650.695679,815.055054 650.695679,813.360107 
	C644.847168,813.130554 644.847168,813.130554 643.792053,809.600464 
	C649.749390,810.225830 655.174561,804.149475 662.644775,809.231689 
	C657.244690,811.048340 653.320129,812.866272 656.008972,818.500244 
	C658.027771,818.858826 660.075562,819.222595 661.981628,820.348877 
	C660.452393,821.408813 659.046875,821.642700 657.683838,822.026855 
	C656.829590,822.267639 656.039185,822.734497 655.220093,823.099976 
	C655.799194,823.964600 656.378296,824.829224 656.957397,825.693848 
z"/>
<path fill="#171717" 
	d="
M667.818909,732.791138 
	C669.873596,730.935852 673.813354,732.084045 674.032227,734.395020 
	C674.492798,739.257324 675.250549,745.391296 670.490479,747.598145 
	C666.513672,749.441895 660.939087,748.445618 656.225830,747.715027 
	C654.860901,747.503418 653.162903,743.897034 653.095459,741.799438 
	C652.769958,731.672791 652.948914,721.530029 652.948914,710.813660 
	C655.123230,710.558411 657.488342,710.280823 660.696411,709.904297 
	C660.696411,719.387756 660.651367,728.329163 660.743591,737.269165 
	C660.757812,738.654236 660.980957,740.525269 661.867065,741.279785 
	C662.803284,742.077087 664.791626,742.252136 666.044983,741.846863 
	C666.870850,741.579895 667.513977,739.854492 667.696289,738.696655 
	C667.977783,736.908936 667.794678,735.048096 667.818909,732.791138 
M658.987793,736.947449 
	C658.987793,730.705322 658.987793,724.463196 658.987793,718.221069 
	C658.777832,718.230164 658.567871,718.239319 658.357910,718.248413 
	C658.357910,725.401123 658.357910,732.553894 658.357910,739.706665 
	C658.528992,739.705872 658.700073,739.705078 658.871155,739.704285 
	C658.909912,739.063049 658.948669,738.421753 658.987793,736.947449 
M667.041748,746.987427 
	C667.843201,746.760071 668.644653,746.532715 669.446045,746.305359 
	C669.380310,745.864990 669.314575,745.424622 669.248779,744.984314 
	C665.819275,745.146973 662.389709,745.309692 658.960144,745.472412 
	C658.978271,745.978943 658.996338,746.485474 659.014404,746.992004 
	C661.407776,746.992004 663.801208,746.992004 667.041748,746.987427 
z"/>
<path fill="#1C1C1C" 
	d="
M270.923706,842.274414 
	C271.009491,842.691162 271.036926,842.394836 271.039825,842.345459 
	C270.229584,843.476013 269.416443,844.655823 268.220703,846.390869 
	C265.607422,843.212585 263.355133,840.473328 261.000366,837.609436 
	C258.951416,840.736450 257.253845,843.521057 255.349808,846.156494 
	C254.293839,847.618042 252.892822,848.830322 250.673553,851.190674 
	C249.969635,849.666870 249.352234,848.330383 248.991333,847.549133 
	C252.114807,842.046753 255.282928,836.465698 259.171417,829.615601 
	C254.518311,829.615601 251.814056,829.615601 249.109818,829.615601 
	C248.738525,829.094238 248.367233,828.572876 247.995941,828.051514 
	C249.094315,827.053345 250.050934,825.522339 251.324692,825.183411 
	C253.177292,824.690613 255.258484,825.057007 257.682068,825.057007 
	C257.682068,822.072327 257.682068,819.220764 257.682068,816.369263 
	C257.367554,816.130981 257.053040,815.892700 256.738525,815.654419 
	C255.098953,817.943542 253.459381,820.232666 251.582535,822.853027 
	C250.369095,822.004089 249.221390,821.201172 248.451752,820.662720 
	C250.362762,815.523865 252.042664,810.761719 253.991196,806.112122 
	C254.206909,805.597351 255.956558,805.725586 257.398346,805.489502 
	C257.285583,807.910095 257.197205,809.807251 257.086792,812.177673 
	C259.619995,812.177673 261.892365,812.177673 264.857300,812.478760 
	C266.864075,812.890320 268.178284,813.000732 269.492493,813.111145 
	C269.024200,814.047363 268.748383,815.567322 268.047638,815.798462 
	C266.578400,816.282898 264.885559,816.089111 262.799835,816.199463 
	C262.799835,818.990417 262.799835,821.559265 262.862030,824.939331 
	C263.277802,826.871887 263.631348,827.993225 263.984924,829.114563 
	C260.567810,830.273438 261.724182,831.985901 263.402588,833.792542 
	C265.891357,836.471313 268.360474,839.168457 270.923706,842.274414 
z"/>
<path fill="#1C1C1C" 
	d="
M392.330750,819.373169 
	C392.191345,821.283325 391.906921,823.587463 392.921753,824.832764 
	C395.849304,828.424988 399.334991,831.557800 402.535645,834.933472 
	C405.201538,837.745361 404.724152,839.806458 400.891052,841.048401 
	C397.112427,836.580566 393.400177,832.191223 390.107025,828.297424 
	C386.353760,832.983704 382.777557,837.448975 379.012726,842.149719 
	C377.229889,840.604858 376.140503,839.660950 374.753510,838.459106 
	C380.728271,833.530151 385.916779,828.282776 386.477386,819.588745 
	C382.612946,819.588745 379.028320,819.588745 375.593048,819.588745 
	C374.140564,815.590393 375.737213,814.690491 378.963074,814.917236 
	C381.415924,815.089722 383.890625,814.951477 385.884399,814.951477 
	C388.900635,812.175598 383.949982,805.602295 391.661804,805.457275 
	C391.661804,808.720581 391.661804,811.618164 391.661804,814.813354 
	C396.042664,814.813354 399.981842,814.813354 404.387634,814.813354 
	C404.474457,816.426392 404.546509,817.765015 404.628235,819.283569 
	C400.359741,819.283569 396.569458,819.283569 392.330750,819.373169 
z"/>
<path fill="#171717" 
	d="
M956.655518,845.485229 
	C958.539368,845.390747 959.981323,845.270874 961.445679,845.149109 
	C961.445679,834.280151 961.445679,823.838379 961.445679,812.937500 
	C950.023804,812.937500 938.789062,812.937500 927.234192,812.937500 
	C927.085205,811.285828 926.974854,810.062317 926.836365,808.526855 
	C939.936523,808.526855 952.684692,808.526855 966.201172,808.526855 
	C966.201172,813.586182 966.205811,818.672852 966.199951,823.759460 
	C966.193787,829.088013 966.184082,834.416565 966.164368,839.745117 
	C966.127258,849.738586 965.287292,850.539062 954.938049,850.113647 
	C954.489075,848.766724 953.997375,847.291504 953.386841,845.459839 
	C954.599854,845.459839 955.406677,845.459839 956.655518,845.485229 
M963.022095,841.597778 
	C963.143433,842.060913 963.264771,842.524048 963.724487,844.279114 
	C963.724487,834.336304 963.724487,825.706970 963.724487,817.077637 
	C963.488770,817.075012 963.252991,817.072388 963.017273,817.069763 
	C963.017273,824.974487 963.017273,832.879211 963.022095,841.597778 
z"/>
<path fill="#2D2D2D" 
	d="
M828.789185,836.918335 
	C826.462769,837.871399 824.136292,838.824341 821.809814,839.777344 
	C821.420959,839.425964 821.032043,839.074585 820.643188,838.723206 
	C821.024780,837.435120 821.260681,835.099365 821.810730,835.022949 
	C826.659912,834.348938 825.514465,830.302612 824.364014,828.636597 
	C820.563477,823.132690 821.707886,817.858154 824.233826,812.111206 
	C822.207642,812.111206 820.772461,812.111206 818.728027,812.111206 
	C818.728027,824.792175 818.728027,837.504150 818.728027,850.115417 
	C815.430725,851.253906 814.174011,850.577332 814.194641,847.450256 
	C814.281250,834.322693 814.231262,821.194336 814.231262,806.617737 
	C819.439697,807.347168 824.340393,808.033508 829.573975,809.241211 
	C827.742676,815.277954 823.936768,820.316345 828.185181,826.898926 
	C829.766113,829.348389 828.666443,833.527771 828.789185,836.918335 
z"/>
<path fill="#191919" 
	d="
M598.289673,846.837036 
	C599.736511,846.237854 601.013794,846.025757 602.428650,845.790833 
	C602.428650,844.179626 602.428650,842.756226 602.428650,841.009399 
	C599.645508,841.009399 597.074951,841.009399 594.509277,841.012329 
	C591.531799,843.255249 596.963623,850.105713 589.270020,850.459412 
	C589.270020,841.042358 589.270020,832.133728 589.270020,822.928345 
	C595.084534,822.928345 600.977112,822.928345 607.262939,822.928345 
	C607.262939,830.305176 607.583435,837.606812 607.046875,844.844971 
	C606.905457,846.751953 604.427429,849.051697 602.453613,850.097229 
	C600.495789,851.134277 598.118286,850.384094 598.289673,846.837036 
M596.732727,836.968079 
	C598.676086,836.968079 600.619385,836.968079 603.212952,836.968079 
	C601.867065,831.563171 598.050354,834.303345 595.649231,833.751587 
	C595.028625,833.609009 594.098389,834.813721 593.310425,835.399597 
	C594.157043,835.921875 595.003723,836.444153 596.732727,836.968079 
M595.850952,826.690430 
	C595.071472,827.262939 594.291992,827.835388 593.512451,828.407837 
	C594.154114,828.979065 594.781494,830.016724 595.440002,830.036865 
	C597.708740,830.106262 599.993347,829.862549 602.254517,829.592529 
	C602.443054,829.570007 602.628296,827.931458 602.601868,827.925049 
	C600.657593,827.454712 598.691833,827.073486 595.850952,826.690430 
z"/>
<path fill="#1C1C1C" 
	d="
M886.434204,846.112610 
	C882.188721,846.540894 878.394775,846.938110 874.379700,847.358521 
	C872.258362,844.761353 872.416809,843.041016 875.053650,840.091187 
	C880.195679,834.338928 884.333496,827.688843 889.276978,820.873169 
	C890.161560,821.218750 891.765564,821.845398 894.004517,822.720154 
	C889.734924,828.941528 885.753479,834.742981 881.082153,841.549622 
	C887.648132,841.259583 893.537354,840.999451 900.445801,840.694275 
	C898.867188,838.105469 897.730042,836.240662 896.471863,834.177307 
	C897.890381,831.730164 899.766907,831.145020 901.696899,833.743347 
	C904.931213,838.097717 907.941711,842.618286 911.376221,847.541687 
	C909.373779,848.821228 908.097168,849.637024 906.350525,850.753113 
	C904.998352,844.525574 900.973267,844.351013 896.308228,845.138489 
	C893.202820,845.662659 890.028931,845.781372 886.434204,846.112610 
z"/>
<path fill="#030303" 
	d="
M383.895630,544.006226 
	C383.895630,571.128845 383.895630,598.251526 383.895630,625.638977 
	C378.721680,625.638977 373.652710,625.638977 368.312805,625.638977 
	C368.312805,598.152893 368.312805,570.901428 368.312805,542.955872 
	C372.902832,542.955872 377.490021,542.955872 382.634277,543.238281 
	C383.368317,543.766418 383.603088,543.928223 383.895630,544.006226 
M382.009491,594.500000 
	C382.008789,579.690918 381.727234,564.873901 382.149902,550.076904 
	C382.311890,544.405945 379.269623,545.120667 375.653900,544.906006 
	C371.502655,544.659424 369.833435,545.609375 369.887970,550.291321 
	C370.145630,572.418701 370.002655,594.550781 370.001587,616.681152 
	C370.001221,624.182434 370.002350,623.990906 377.611542,624.085876 
	C381.199158,624.130615 382.159210,622.857666 382.073578,619.459045 
	C381.872498,611.477234 382.009338,603.486877 382.009491,594.500000 
z"/>
<path fill="#191919" 
	d="
M619.096558,746.038208 
	C617.411560,747.650574 615.972778,749.011230 614.111084,750.771790 
	C612.088074,748.991821 610.149231,747.285889 607.858582,745.270447 
	C619.613892,736.514893 621.419617,724.201050 620.117798,710.550049 
	C622.911438,710.381348 625.139404,710.246765 627.900940,710.080017 
	C628.793335,723.196472 628.700989,735.548462 619.096558,746.038208 
z"/>
<path fill="#191919" 
	d="
M374.645538,842.213257 
	C384.893585,846.901428 395.198120,844.585815 405.871887,843.894165 
	C405.413361,845.900024 405.064484,847.426208 404.621979,849.362061 
	C392.560822,848.445801 379.929230,852.895020 369.429871,842.964111 
	C367.410553,845.114685 365.498993,847.150513 363.240997,849.555298 
	C362.368286,848.287598 361.504700,847.033142 360.197815,845.134827 
	C368.199219,841.675476 368.754547,835.278687 367.443939,828.140808 
	C365.546509,826.480225 360.110748,829.670044 361.334259,823.396545 
	C364.659851,823.396545 368.064301,823.396545 372.376801,823.396545 
	C372.376801,827.595215 372.179626,831.860657 372.463501,836.093811 
	C372.596893,838.082703 373.656311,840.009521 374.645538,842.213257 
z"/>
<path fill="#171717" 
	d="
M674.370911,834.586792 
	C677.355408,834.499268 678.044006,833.224243 677.998779,830.740417 
	C677.844971,822.298889 677.940002,813.852844 677.940002,805.463196 
	C681.778625,804.286194 682.623901,805.876160 682.568054,809.068115 
	C682.432373,816.825623 682.523926,824.587097 682.523926,832.530396 
	C684.573120,832.530396 686.019348,832.530396 689.413269,832.530396 
	C687.651550,834.509827 686.701172,835.492432 685.850037,836.554626 
	C684.688049,838.004639 683.125793,839.368713 682.611145,841.039368 
	C682.050781,842.858398 682.368286,844.996094 682.525879,846.977234 
	C682.789368,850.287781 681.325928,851.133850 678.019043,850.114319 
	C678.019043,846.442078 678.019043,842.691467 678.019043,838.523621 
	C672.736023,839.483215 667.873962,840.366394 662.866455,841.276001 
	C661.190918,837.913452 661.896851,836.184509 665.539734,835.807312 
	C668.346069,835.516724 671.134583,835.053894 674.370911,834.586792 
z"/>
<path fill="#1E1E1F" 
	d="
M550.340454,829.813171 
	C550.060669,830.083679 549.456360,830.069092 548.897888,829.743774 
	C547.401184,827.429138 545.858582,825.425232 543.861145,822.830444 
	C541.141602,826.141785 539.552002,828.077209 537.962402,830.012695 
	C537.962402,830.012695 537.837891,830.019226 537.800781,829.979065 
	C535.370728,829.842407 532.331116,833.261047 530.692139,828.553162 
	C533.385925,826.344055 536.098572,824.119446 539.945862,820.964417 
	C535.767090,820.591492 533.107910,820.354126 529.731262,820.052734 
	C531.540955,815.383545 533.091919,811.121338 534.895142,806.968750 
	C535.220886,806.218628 537.132751,805.307068 537.368469,805.519226 
	C538.268005,806.328430 538.781555,807.566650 539.777161,809.198547 
	C542.784973,809.198547 546.587219,809.198547 550.389404,809.198547 
	C550.715515,809.634094 551.041626,810.069641 551.367737,810.505188 
	C550.303528,811.328979 549.292236,812.236023 548.161316,812.954895 
	C546.834595,813.798218 545.403992,814.478027 544.018433,815.228760 
	C544.241028,815.718323 544.463684,816.207947 544.686279,816.697571 
	C545.306641,816.835571 545.931213,816.956970 546.546509,817.114746 
	C548.556396,817.630249 550.562988,818.158997 552.570801,818.682739 
	C550.821167,819.529663 549.071533,820.376587 546.503174,821.619812 
	C548.493835,823.010986 550.247131,824.236267 552.257202,825.640991 
	C551.514526,826.928955 550.765259,828.228516 550.340454,829.813171 
M539.902771,812.129456 
	C536.352966,811.354248 534.731201,813.113220 534.125366,816.564636 
	C537.997437,817.716614 539.082581,814.815002 539.902771,812.129456 
z"/>
<path fill="#1E1E1F" 
	d="
M780.000000,366.983185 
	C778.277588,367.323029 776.555359,367.959564 774.832825,367.960327 
	C671.060242,368.006317 567.287659,368.001862 463.515076,367.982056 
	C461.870789,367.981720 460.226593,367.733032 458.594238,367.276154 
	C459.073822,366.623810 459.541504,366.295563 460.009155,365.967285 
	C463.702454,365.881470 467.395721,365.795654 471.814636,366.145203 
	C474.181152,366.720093 475.821991,366.981415 477.462921,366.981628 
	C578.308594,366.995758 679.154297,366.988495 780.000000,366.983185 
z"/>
<path fill="#191919" 
	d="
M715.307495,829.504822 
	C709.231750,832.716431 710.662415,838.439087 710.676392,843.620667 
	C710.685974,847.157227 709.990051,849.719116 705.754822,850.230347 
	C702.604980,850.610535 701.027954,849.788330 701.018066,846.303528 
	C702.481567,846.217224 703.914062,846.132751 705.700378,846.027405 
	C705.700378,842.038208 705.700378,838.138367 705.700378,833.990479 
	C704.136963,834.237610 702.554016,834.487793 700.881287,834.752258 
	C697.918213,829.132812 703.456360,830.266479 705.726135,828.479736 
	C705.726135,825.759766 705.726135,822.800903 705.726135,819.621887 
	C703.843628,819.490417 701.967957,819.359497 700.092224,819.228516 
	C699.880005,818.779724 699.667725,818.330933 699.455444,817.882141 
	C701.319580,816.598572 703.183655,815.315002 705.806641,813.508850 
	C705.806641,811.898926 705.806641,809.113586 705.806641,805.599915 
	C707.514343,805.810364 708.833984,805.972900 710.272766,806.928894 
	C710.934692,810.115540 711.477478,812.508850 712.020264,814.902100 
	C712.717285,814.990662 713.414246,815.079163 714.604736,815.535889 
	C713.962402,817.448730 712.826660,818.993469 711.690918,820.538208 
	C711.412476,820.351013 711.134033,820.163757 710.855591,819.976562 
	C710.855591,822.328796 710.855591,824.681030 710.855591,827.033325 
	C711.997681,828.865540 717.052307,823.662292 715.307495,829.504822 
z"/>
<path fill="#131313" 
	d="
M640.235229,710.781921 
	C641.844299,711.423462 644.089539,712.055786 644.102539,712.731018 
	C644.319458,724.016357 644.257263,735.307129 644.257263,746.829590 
	C641.700439,746.829590 639.426697,746.829590 636.595764,746.829590 
	C636.595764,741.921570 636.619629,737.169434 636.589844,732.417603 
	C636.551147,726.258728 636.691528,720.086609 636.313904,713.947205 
	C636.122620,710.837097 637.652954,710.713257 640.235229,710.781921 
z"/>
<path fill="#030303" 
	d="
M779.998901,366.726105 
	C679.154297,366.988495 578.308594,366.995758 477.462921,366.981628 
	C475.821991,366.981415 474.181152,366.720093 472.260803,366.264954 
	C501.273468,365.885742 530.565613,365.780426 559.857727,365.766907 
	C632.934937,365.733215 706.012085,365.741211 779.546753,365.843689 
	C780.002075,366.126282 779.999878,366.297668 779.998901,366.726105 
z"/>
<path fill="#030303" 
	d="
M198.710876,544.730225 
	C198.221344,545.430298 197.423309,546.303406 196.644775,546.286316 
	C179.886078,545.919312 163.130478,545.393066 146.370621,545.140869 
	C145.264587,545.124268 143.155716,547.046143 143.150208,548.075134 
	C143.017441,572.875793 143.106552,597.677734 143.176483,622.479370 
	C143.177307,622.766663 143.452484,623.053162 143.934280,623.992676 
	C145.379364,623.992676 147.173584,623.826599 148.925934,624.026794 
	C152.715485,624.459778 154.346558,623.262573 154.083435,619.110840 
	C153.726135,613.472900 153.850082,607.789001 154.098480,602.139343 
	C154.158936,600.764404 155.510803,599.446350 156.690338,598.067017 
	C157.111801,607.132629 157.111801,616.233398 157.111801,625.850525 
	C151.791733,625.850525 147.366867,625.850525 142.490204,625.297180 
	C142.024689,600.039429 142.033173,575.334961 141.953201,550.630737 
	C141.947113,548.750122 141.314240,546.871521 140.972702,544.991943 
	C141.388107,544.315552 141.816635,543.040039 142.217072,543.048828 
	C160.950058,543.458618 179.680618,543.980103 198.710876,544.730225 
z"/>
<path fill="#131313" 
	d="
M590.919128,745.017090 
	C590.544250,744.390930 589.687073,743.493774 589.864563,743.178040 
	C595.022705,733.999634 600.284180,724.879395 605.535583,715.738586 
	C611.433838,719.663391 611.816956,720.636230 608.919250,726.432373 
	C605.673218,732.925415 602.212280,739.311035 598.154480,745.938965 
	C596.951660,747.005798 596.439209,747.877075 595.926758,748.748352 
	C595.368896,748.427124 594.811096,748.105896 594.051819,747.140625 
	C592.873291,746.003418 591.896240,745.510254 590.919128,745.017090 
z"/>
<path fill="#2D2D2D" 
	d="
M329.020874,817.005127 
	C329.020874,814.560669 329.020874,812.116272 329.020874,809.384521 
	C335.247833,809.384521 340.980988,809.384521 346.932709,809.384521 
	C346.932709,815.076355 346.932709,820.661255 346.932709,826.951355 
	C341.156738,826.951355 335.582642,826.951355 329.623260,826.460388 
	C329.165588,822.981323 329.093231,819.993225 329.020874,817.005127 
M342.628906,816.759460 
	C342.134521,809.688354 337.137177,814.305298 334.004395,812.884766 
	C334.004395,816.521179 334.004395,819.517517 334.004395,822.448975 
	C337.076660,822.448975 339.759735,822.448975 342.652313,822.448975 
	C342.652313,820.583435 342.652313,819.112061 342.628906,816.759460 
z"/>
<path fill="#1E1E1F" 
	d="
M572.472839,822.593506 
	C572.599365,825.212830 572.481201,826.990417 569.454590,826.886414 
	C564.678528,826.722107 559.892639,826.842712 554.717773,826.842712 
	C554.717773,821.041382 554.717773,815.463745 554.717773,809.492554 
	C560.278687,809.492554 565.993042,809.492554 572.466980,809.492554 
	C572.466980,813.642944 572.466980,817.890320 572.472839,822.593506 
M560.598633,812.921082 
	C559.778931,815.995789 558.959290,819.070557 558.020569,822.592102 
	C562.157715,822.592102 564.882690,822.592102 567.721436,822.592102 
	C567.721436,819.334656 567.721436,816.308411 567.721436,812.940857 
	C565.453552,812.940857 563.501221,812.940857 560.598633,812.921082 
z"/>
<path fill="#030303" 
	d="
M251.059280,544.471313 
	C251.772781,545.677917 252.904724,547.339539 252.912949,549.006653 
	C253.027634,572.280273 253.183548,595.557556 252.844421,618.826782 
	C252.763947,624.348694 255.498337,623.972534 259.239166,624.089905 
	C263.187195,624.213867 265.510742,623.702026 265.097992,618.817627 
	C264.651642,613.535522 264.922668,608.184937 265.041412,602.867798 
	C265.075836,601.325745 265.661957,599.796021 266.368225,598.140381 
	C266.741302,607.123718 266.741302,616.227417 266.741302,625.628052 
	C261.622894,625.628052 256.572418,625.628052 250.955246,625.628052 
	C250.955246,598.638123 250.955246,571.783508 251.059280,544.471313 
z"/>
<path fill="#EDEDED" 
	d="
M658.029175,686.691528 
	C655.363647,687.579956 652.719482,688.180237 649.270447,688.963196 
	C651.337708,691.598572 652.813416,693.479736 654.965454,696.223145 
	C646.056702,696.905334 637.991882,697.522949 629.472839,698.175354 
	C632.930908,693.980469 635.798157,690.242615 638.983765,686.799377 
	C639.915344,685.792358 641.734314,685.212036 643.178711,685.146790 
	C647.811401,684.937561 652.459106,685.060974 657.561768,685.152100 
	C658.031799,685.633240 658.041138,686.018311 658.029175,686.691528 
z"/>
<path fill="#2D2D2D" 
	d="
M211.371216,818.250427 
	C211.116531,819.420654 210.501495,820.339050 209.685654,821.536194 
	C207.389282,821.507996 205.293716,821.200989 203.028229,820.869141 
	C205.796310,815.870300 207.974197,811.620911 210.498367,807.588257 
	C211.179642,806.499817 212.911087,806.068848 215.148148,804.756775 
	C214.844604,807.542664 214.714722,808.734863 214.542694,810.313721 
	C221.477661,810.313721 228.099640,810.313721 234.801666,810.313721 
	C236.118027,813.465698 235.606979,814.885803 232.126373,814.776062 
	C226.631912,814.602600 221.129868,814.677734 215.631287,814.622559 
	C213.229050,814.598511 211.059311,814.830261 211.371216,818.250427 
z"/>
<path fill="#171717" 
	d="
M949.083740,841.595947 
	C945.618347,841.682373 942.075745,841.356628 938.712158,841.986572 
	C936.047424,842.485474 933.602295,844.156433 930.099060,845.741699 
	C930.447449,838.388794 930.740173,832.211060 931.765320,826.338135 
	C938.993591,826.455139 945.489319,826.267273 951.985107,826.079468 
	C952.423889,830.756409 952.862671,835.433411 952.801758,840.529480 
	C951.229309,841.164368 950.156494,841.380127 949.083740,841.595947 
M935.723572,837.937134 
	C939.961365,837.937134 944.199158,837.937134 948.319946,837.937134 
	C948.319946,834.794006 948.319946,832.379272 948.319946,829.728516 
	C943.741699,829.728516 939.476807,829.728516 934.966309,829.728516 
	C934.966309,832.439758 934.966309,834.901367 935.723572,837.937134 
z"/>
<path fill="#030303" 
	d="
M501.777618,43.112148 
	C502.546600,42.562855 503.314819,41.534706 504.084686,41.533501 
	C531.713684,41.490284 559.342773,41.533573 586.971863,41.595215 
	C590.102844,41.602203 593.233459,41.787556 596.084961,42.346817 
	C593.486877,42.870674 591.168213,42.992931 588.849304,42.996799 
	C559.825439,43.045216 530.801514,43.076488 501.777618,43.112148 
z"/>
<path fill="#030303" 
	d="
M671.614380,335.520599 
	C671.692566,335.122650 671.961731,335.098999 673.098145,335.033997 
	C704.011841,334.977112 734.058167,334.961639 764.104553,334.946167 
	C763.733948,335.471161 763.363892,336.455383 762.992798,336.455750 
	C732.876587,336.486084 702.760254,336.441071 672.644043,336.378204 
	C672.364136,336.377625 672.084900,336.062927 671.614380,335.520599 
z"/>
<path fill="#1C1C1C" 
	d="
M605.811096,812.186218 
	C607.156555,814.466980 608.312927,816.427185 609.654419,818.700989 
	C608.342163,819.216553 607.107971,820.109680 606.661377,819.813904 
	C602.022278,816.740906 597.343750,819.411865 592.696960,819.418579 
	C591.121399,819.420837 589.544495,818.483582 587.968201,817.975708 
	C588.463867,816.537598 588.749634,814.976746 589.502441,813.688965 
	C590.752625,811.550537 592.101501,809.394470 593.801147,807.622192 
	C594.846069,806.532593 596.620789,806.142944 598.067749,805.439026 
	C598.338257,805.843201 598.608704,806.247375 598.879211,806.651611 
	C597.527649,809.187317 596.176147,811.723022 594.576477,814.724365 
	C597.142883,814.724365 599.153625,814.724365 600.552185,814.724365 
	C600.937073,812.777100 601.262878,811.128967 601.588745,809.480835 
	C602.933167,810.275757 604.277649,811.070679 605.811096,812.186218 
z"/>
<path fill="#191919" 
	d="
M606.050354,705.161011 
	C605.188416,706.381531 604.472473,707.270630 603.772583,708.139709 
	C598.171021,704.849487 592.772522,701.678406 586.852905,698.201294 
	C588.339478,696.260559 589.792786,694.363220 591.526001,692.100464 
	C596.013611,694.378723 600.198242,696.719055 604.563843,698.650269 
	C607.983093,700.163025 607.997131,702.151611 606.050354,705.161011 
z"/>
<path fill="#2D2D2D" 
	d="
M505.370911,714.238525 
	C499.389038,710.080505 493.765350,705.876099 487.978119,701.549438 
	C489.017334,700.084900 490.041199,698.641907 491.133179,696.822754 
	C491.946808,696.327087 492.692322,696.207581 493.612305,696.254517 
	C495.732269,698.080750 497.588623,699.861755 499.643127,701.373535 
	C503.208588,703.997070 506.896606,706.454041 511.027252,709.324097 
	C508.842926,711.331055 507.285980,712.761597 505.370911,714.238525 
z"/>
<path fill="#191919" 
	d="
M605.045044,672.985535 
	C612.502136,677.898621 612.555969,678.289673 606.591858,684.190491 
	C601.510620,680.756348 596.365723,677.279175 590.850891,673.552002 
	C592.438538,671.646484 593.966736,669.812439 595.805908,667.605042 
	C598.809265,669.362000 601.765564,671.091370 605.045044,672.985535 
z"/>
<path fill="#171717" 
	d="
M140.847137,545.376953 
	C141.314240,546.871521 141.947113,548.750122 141.953201,550.630737 
	C142.033173,575.334961 142.024689,600.039429 142.037659,625.189026 
	C141.615570,624.436584 140.830536,623.240295 140.826401,622.041199 
	C140.738602,596.614990 140.738663,571.188477 140.847137,545.376953 
z"/>
<path fill="#2D2D2D" 
	d="
M931.318481,817.207520 
	C939.721497,817.204895 947.661804,817.204895 955.704468,817.204895 
	C956.871094,820.161316 956.088623,821.252625 953.025269,821.221436 
	C945.564270,821.145569 938.098877,821.382996 930.641296,821.218628 
	C929.438232,821.192078 928.266357,819.749207 927.080078,818.961060 
	C928.338623,818.377380 929.597168,817.793762 931.318481,817.207520 
z"/>
<path fill="#1C1C1C" 
	d="
M870.402710,826.946777 
	C869.949890,825.762756 869.271362,824.431335 869.674622,823.848755 
	C873.222656,818.723511 876.821777,813.616455 880.750427,808.784180 
	C881.687927,807.631104 883.915527,807.526917 885.549683,806.940186 
	C886.051270,807.593506 886.552795,808.246826 887.054321,808.900085 
	C882.965027,814.715149 878.969299,820.601074 874.683411,826.267456 
	C874.056580,827.096130 872.047852,826.879517 870.402710,826.946777 
z"/>
<path fill="#1E1E1F" 
	d="
M901.020142,809.739136 
	C905.050354,814.804749 908.889282,819.549011 913.009216,824.640503 
	C911.039978,827.869324 908.617615,828.615723 905.831787,824.837341 
	C902.000854,819.641663 898.269165,814.372864 894.405701,809.011536 
	C897.224670,806.206360 899.192688,806.252625 901.020142,809.739136 
z"/>
<path fill="#DDDCDF" 
	d="
M715.746643,829.632324 
	C717.052307,823.662292 711.997681,828.865540 710.855591,827.033325 
	C710.855591,824.681030 710.855591,822.328796 710.855591,819.976562 
	C711.134033,820.163757 711.412476,820.351013 711.690918,820.538208 
	C712.826660,818.993469 713.962402,817.448730 714.960144,815.498901 
	C715.034058,815.057556 715.245972,815.021423 715.778931,815.017212 
	C716.903625,815.732544 717.657166,816.919128 718.520508,817.005432 
	C721.130310,817.265930 723.782654,817.099487 726.789978,817.099487 
	C726.789978,819.380737 726.789978,821.413391 726.789978,823.859070 
	C723.695129,824.013916 720.593689,824.169067 716.868042,824.355469 
	C717.591797,826.127014 718.237671,827.707764 718.897217,829.662842 
	C718.002563,829.944702 717.094177,829.852295 715.746643,829.632324 
z"/>
<path fill="#030303" 
	d="
M654.558167,609.239990 
	C654.240540,609.686646 653.986511,609.758179 653.365601,609.442139 
	C652.993958,587.709778 652.989258,566.364990 652.984558,545.020264 
	C653.232483,544.738159 653.480408,544.456055 653.988281,544.053162 
	C654.390625,559.244080 654.554871,574.555603 654.664917,589.867615 
	C654.710388,596.199585 654.639648,602.532349 654.558167,609.239990 
z"/>
<path fill="#F9F9F9" 
	d="
M829.244080,836.940552 
	C828.666443,833.527771 829.766113,829.348389 828.185181,826.898926 
	C823.936768,820.316345 827.742676,815.277954 829.921509,809.386658 
	C830.420898,808.742065 830.905762,808.473511 831.644470,808.090820 
	C831.841064,817.368286 831.783691,826.759705 831.623291,836.541138 
	C830.913147,836.941650 830.306030,836.952209 829.244080,836.940552 
z"/>
<path fill="#DDDCDF" 
	d="
M845.006836,844.964355 
	C842.595825,840.251526 839.147766,845.169312 836.385681,843.790894 
	C836.385681,839.073730 836.385681,834.174194 836.385681,829.274658 
	C836.757996,828.992004 837.130310,828.709351 837.502625,828.426697 
	C838.760193,829.736938 840.364746,830.857849 841.203918,832.396301 
	C843.013550,835.713623 844.429993,839.245483 846.115845,842.999878 
	C845.913391,843.821289 845.602417,844.332214 845.006836,844.964355 
z"/>
<path fill="#232323" 
	d="
M501.806702,43.347580 
	C530.801514,43.076488 559.825439,43.045216 588.849304,42.996799 
	C591.168213,42.992931 593.486877,42.870674 596.321411,42.702370 
	C596.837097,42.601299 596.809326,42.632614 596.563232,42.933807 
	C596.200867,43.482430 596.084656,43.729851 595.968445,43.977276 
	C565.164062,44.001102 534.359741,44.024925 503.058807,44.084137 
	C502.204681,44.096924 501.962524,43.918083 501.806702,43.347580 
z"/>
<path fill="#232323" 
	d="
M194.797577,843.466492 
	C196.612839,839.374207 198.305466,835.619019 200.037933,831.775452 
	C204.054398,834.698059 203.737076,836.352600 197.056396,849.345032 
	C193.402618,848.727112 192.986557,846.757629 194.797577,843.466492 
z"/>
<path fill="#2D2D2D" 
	d="
M764.134460,334.735229 
	C734.058167,334.961639 704.011841,334.977112 673.500793,334.987366 
	C674.925171,334.655823 676.813354,334.050232 678.703308,334.045044 
	C706.678101,333.968018 734.653198,333.970703 763.139038,333.924255 
	C763.952454,333.997131 764.123962,334.207184 764.134460,334.735229 
z"/>
<path fill="#232323" 
	d="
M656.942505,825.205688 
	C656.378296,824.829224 655.799194,823.964600 655.220093,823.099976 
	C656.039185,822.734497 656.829590,822.267639 657.683838,822.026855 
	C659.046875,821.642700 660.452393,821.408813 662.066040,820.747559 
	C665.607422,822.157227 669.073364,823.711914 672.150269,825.831421 
	C673.134033,826.509033 673.087219,828.682800 673.511963,830.171997 
	C672.887268,830.474060 672.262573,830.776062 671.637878,831.078125 
	C668.784546,828.439697 665.931213,825.801270 662.285706,822.430359 
	C661.383911,822.815247 659.155762,823.766357 656.942505,825.205688 
z"/>
<path fill="#232323" 
	d="
M364.091736,810.758423 
	C364.053131,809.418762 364.019714,807.611694 364.380951,807.528992 
	C365.469452,807.279846 367.200714,807.266479 367.802582,807.942993 
	C369.651428,810.021118 371.090637,812.463684 372.934814,815.118286 
	C371.440063,816.100464 370.270721,816.868835 369.024048,817.688049 
	C367.309235,815.300537 365.793274,813.189880 364.091736,810.758423 
z"/>
<path fill="#2D2D2D" 
	d="
M665.706543,811.632202 
	C666.939697,808.662354 668.534058,808.154785 670.844849,810.501709 
	C672.453552,812.135498 674.399475,813.437195 676.194702,814.887329 
	C675.910767,815.589050 675.626770,816.290710 675.342834,816.992432 
	C673.775757,816.737122 671.977417,816.878174 670.697083,816.131348 
	C668.884094,815.073792 667.453308,813.361145 665.706543,811.632202 
z"/>
<path fill="#030303" 
	d="
M267.642090,597.117737 
	C267.306519,596.418396 267.421143,595.149841 267.549103,595.148499 
	C275.265778,595.067200 282.984711,595.034363 290.698914,595.203857 
	C291.347656,595.218140 291.965088,596.656616 292.371033,597.685852 
	C284.129456,597.672180 276.113953,597.406006 267.642090,597.117737 
z"/>
<path fill="#030303" 
	d="
M655.708130,610.656982 
	C657.665100,611.235657 659.346558,611.929749 661.032593,611.941223 
	C674.303711,612.031494 687.575684,611.991394 700.859375,612.987793 
	C694.182312,612.987793 687.505310,612.987244 680.828247,612.987915 
	C673.176697,612.988770 665.521667,613.105164 657.876953,612.877441 
	C656.628235,612.840210 655.424744,611.286438 654.309814,609.997437 
	C654.757751,609.859619 655.096252,610.157959 655.708130,610.656982 
z"/>
<path fill="#2D2D2D" 
	d="
M197.836456,806.485535 
	C200.351654,808.017334 202.573196,809.375854 205.148392,810.950623 
	C203.989883,812.324829 203.201187,813.260376 202.327484,814.296753 
	C199.529007,812.503357 196.942902,810.846130 193.753754,808.802368 
	C195.248505,807.820068 196.395660,807.066223 197.836456,806.485535 
z"/>
<path fill="#2D2D2D" 
	d="
M201.139481,826.133850 
	C199.864258,826.608643 198.606049,827.295227 197.839264,826.935181 
	C195.788742,825.972473 193.949066,824.560547 191.124969,822.749451 
	C192.975510,821.907654 194.881836,820.376404 195.646988,820.818787 
	C197.808685,822.068848 199.502396,824.128113 201.139481,826.133850 
z"/>
<path fill="#DDDCDF" 
	d="
M328.639923,817.012817 
	C329.093231,819.993225 329.165588,822.981323 329.254333,826.414490 
	C328.527832,826.943115 327.784943,827.026733 326.668945,827.084961 
	C325.784180,826.114258 325.478241,824.927551 324.715210,824.277161 
	C323.400238,823.156250 321.800781,822.369080 320.350952,821.460876 
	C321.961151,818.527588 326.723389,822.846497 326.871277,817.546021 
	C327.247223,817.098206 327.753113,817.059326 328.639923,817.012817 
z"/>
<path fill="#DDDCDF" 
	d="
M854.050659,830.572632 
	C851.565369,832.400818 849.101624,833.939758 846.404541,835.624451 
	C845.585205,833.584412 844.863403,831.787292 843.772888,829.072083 
	C847.080444,829.072083 849.620483,829.072083 852.604980,829.043335 
	C853.390381,829.437561 853.731323,829.860535 854.050659,830.572632 
z"/>
<path fill="#4A4A4A" 
	d="
M951.620972,825.906494 
	C945.489319,826.267273 938.993591,826.455139 932.244751,826.303101 
	C938.413452,825.886719 944.835144,825.810120 951.620972,825.906494 
z"/>
<path fill="#4A4A4A" 
	d="
M264.309265,829.305054 
	C263.631348,827.993225 263.277802,826.871887 262.953308,825.392578 
	C264.647614,825.015137 266.373016,824.721252 267.957703,825.068848 
	C269.093262,825.317993 270.040527,826.425720 271.071838,827.150391 
	C270.090454,827.937744 269.215271,829.005127 268.096252,829.429565 
	C267.079926,829.815063 265.798279,829.501038 264.309265,829.305054 
z"/>
<path fill="#DDDCDF" 
	d="
M853.581177,808.651672 
	C850.490967,808.440063 847.621948,807.976807 844.331909,807.343994 
	C847.423523,805.843750 850.987854,804.096497 853.581177,808.651672 
z"/>
<path fill="#DDDCDF" 
	d="
M712.026917,814.490356 
	C711.477478,812.508850 710.934692,810.115540 710.559082,807.316406 
	C711.161987,809.299866 711.597778,811.689209 712.026917,814.490356 
z"/>
<path fill="#EDEDED" 
	d="
M462.076752,682.460205 
	C464.046722,681.990662 466.101959,681.888611 468.580811,681.917664 
	C467.057678,685.242188 464.658875,684.465637 462.076752,682.460205 
z"/>
<path fill="#DDDCDF" 
	d="
M834.202942,850.253418 
	C836.442810,849.092407 838.886292,848.187988 841.693726,847.316895 
	C839.507324,848.403442 836.956909,849.456726 834.202942,850.253418 
z"/>
<path fill="#4A4A4A" 
	d="
M269.603271,812.817749 
	C268.178284,813.000732 266.864075,812.890320 265.314880,812.553589 
	C266.624603,812.392944 268.169312,812.458679 269.603271,812.817749 
z"/>
<path fill="#4A4A4A" 
	d="
M949.301758,841.790894 
	C950.156494,841.380127 951.229309,841.164368 952.644653,840.971924 
	C951.831421,841.325500 950.675659,841.655701 949.301758,841.790894 
z"/>
<path fill="#030303" 
	d="
M600.329590,48.487755 
	C599.601318,47.768909 598.836304,46.773243 598.080994,45.313591 
	C598.824768,45.970051 599.558777,47.090492 600.329590,48.487755 
z"/>
<path fill="#2D2D2D" 
	d="
M205.560242,832.616272 
	C206.450256,832.636780 207.647598,832.865723 208.764099,833.413330 
	C207.744675,833.429565 206.806122,833.127136 205.560242,832.616272 
z"/>
<path fill="#4A4A4A" 
	d="
M597.080444,583.777588 
	C596.747070,583.111450 596.583557,582.238098 596.662720,581.192017 
	C597.020386,581.869629 597.135315,582.719910 597.080444,583.777588 
z"/>
<path fill="#EDEDED" 
	d="
M454.195465,713.920837 
	C454.523468,712.139771 455.134735,709.642395 457.323700,713.423462 
	C456.532104,713.856628 455.597290,713.908325 454.195465,713.920837 
z"/>
<path fill="#2D2D2D" 
	d="
M206.663528,828.493042 
	C206.147797,828.818604 205.529999,828.953674 204.669174,829.065247 
	C205.137924,828.795288 205.849686,828.548950 206.663528,828.493042 
z"/>
<path fill="#2D2D2D" 
	d="
M596.189209,748.880371 
	C596.439209,747.877075 596.951660,747.005798 597.881470,746.136658 
	C597.683167,747.096619 597.067444,748.054504 596.189209,748.880371 
z"/>
<path fill="#2D2D2D" 
	d="
M591.054199,745.310425 
	C591.896240,745.510254 592.873291,746.003418 593.870728,746.864136 
	C592.990479,746.688965 592.089905,746.146301 591.054199,745.310425 
z"/>
<path fill="#030303" 
	d="
M596.156921,44.230476 
	C596.084656,43.729851 596.200867,43.482430 596.573242,42.914291 
	C597.252502,43.186512 597.675720,43.779449 598.116455,44.648479 
	C597.537781,44.777603 596.941589,44.630642 596.156921,44.230476 
z"/>
<path fill="#030303" 
	d="
M459.630798,365.883057 
	C459.541504,366.295563 459.073822,366.623810 458.303101,366.976044 
	C457.717224,366.930023 457.480438,366.784943 457.166260,366.393585 
	C457.779419,366.081207 458.515930,365.940002 459.630798,365.883057 
z"/>
<path fill="#EDEDED" 
	d="
M477.885956,673.108276 
	C477.982727,673.585388 477.825928,674.168152 477.319031,674.705078 
	C477.190094,674.177551 477.411224,673.695740 477.885956,673.108276 
z"/>
<path fill="#2D2D2D" 
	d="
M532.807312,625.366333 
	C533.100586,625.172363 533.403015,625.299377 533.856323,625.627441 
	C533.610229,625.781433 533.213379,625.734436 532.807312,625.366333 
z"/>
<path fill="#1C1C1C" 
	d="
M383.955139,543.718262 
	C383.603088,543.928223 383.368317,543.766418 383.093872,543.326538 
	C383.335785,543.231628 383.675232,543.330933 383.955139,543.718262 
z"/>
<path fill="#030303" 
	d="
M600.842957,50.321976 
	C600.408569,50.530487 599.914429,50.285492 599.315002,49.620167 
	C599.734192,49.422710 600.258728,49.645588 600.842957,50.321976 
z"/>
<path fill="#FBFBFB" 
	d="
M795.256958,605.277222 
	C783.079407,616.518982 763.284363,614.655884 753.779968,605.792664 
	C745.275818,597.862183 742.868225,588.189026 745.190308,577.208984 
	C747.452515,566.511841 754.246277,559.566650 764.615173,556.530518 
	C785.456177,550.427917 804.672791,564.575378 804.013672,585.356873 
	C803.771606,592.987610 800.689026,599.481018 795.256958,605.277222 
z"/>
<path fill="#F9F9F9" 
	d="
M306.125061,558.556030 
	C312.121002,562.830872 314.295319,568.186462 312.691376,574.181946 
	C311.400665,579.006531 306.606323,582.975952 300.851471,583.375671 
	C295.552216,583.743896 290.217407,583.630615 284.897797,583.667603 
	C279.112732,583.707764 273.327209,583.676697 267.032379,583.676697 
	C267.032379,578.793213 267.032379,574.355286 267.032379,569.917297 
	C267.032379,565.614380 267.032379,561.311462 267.032379,555.676392 
	C280.165192,556.573975 292.987366,557.450317 306.125061,558.556030 
z"/>
<path fill="#232323" 
	d="
M293.859772,553.997559 
	C296.461914,553.997559 298.588074,553.997559 300.714233,553.997559 
	C300.715820,554.211914 300.717377,554.426270 300.718933,554.640625 
	C290.236664,554.640625 279.754395,554.640625 269.272095,554.640625 
	C269.264618,554.426270 269.257141,554.211914 269.249664,553.997559 
	C277.294373,553.997559 285.339081,553.997559 293.859772,553.997559 
z"/>
<path fill="#FBFBFB" 
	d="
M196.983765,581.181458 
	C194.531448,582.249939 192.398666,583.752136 190.233246,583.800720 
	C179.293533,584.046326 168.345337,583.913635 157.052704,583.913635 
	C157.052704,575.042969 157.052704,566.145508 157.052704,557.141296 
	C168.358963,557.141296 179.613312,556.838989 190.839233,557.272339 
	C196.230484,557.480530 200.153198,561.151428 201.658936,566.274902 
	C203.293045,571.835083 202.700394,577.238342 196.983765,581.181458 
z"/>
<path fill="#232323" 
	d="
M169.096222,554.000000 
	C175.994003,554.000000 182.407471,554.000000 188.820938,554.000000 
	C188.820389,554.225952 188.819839,554.451843 188.819290,554.677795 
	C179.606567,554.677795 170.393845,554.677795 161.181122,554.677795 
	C161.171402,554.451843 161.161667,554.225952 161.151947,554.000000 
	C163.638596,554.000000 166.125259,554.000000 169.096222,554.000000 
z"/>
<path fill="#232323" 
	d="
M558.067749,590.984375 
	C554.782837,590.984985 551.985046,590.984985 549.187256,590.984985 
	C549.183289,590.654236 549.179260,590.323547 549.175293,589.992798 
	C552.653625,589.992798 556.131897,589.992859 559.610229,589.992737 
	C569.760376,589.992432 579.913208,589.858154 590.059204,590.063293 
	C593.686646,590.136536 594.065613,588.407349 594.069580,585.492737 
	C594.073608,582.566650 593.668579,580.878784 590.052734,580.929688 
	C577.107117,581.111877 564.157349,581.001099 551.207336,580.336060 
	C565.480652,580.336060 579.754028,580.336060 594.501221,580.336060 
	C594.501221,583.678894 594.501221,587.016418 594.501221,590.983704 
	C582.413513,590.983704 570.484192,590.983704 558.067749,590.984375 
z"/>
<path fill="#2D2D2D" 
	d="
M534.971802,591.007690 
	C534.970703,601.620117 534.970703,611.734131 534.970703,621.848145 
	C534.757629,621.846802 534.544495,621.845459 534.331421,621.844116 
	C534.331421,606.943665 534.331421,592.043152 534.331421,577.142700 
	C534.545227,577.138916 534.759033,577.135132 534.972839,577.131348 
	C534.972839,581.590637 534.972839,586.049988 534.971802,591.007690 
z"/>
<path fill="#2D2D2D" 
	d="
M534.358459,548.348694 
	C534.585938,555.271240 534.585938,562.472778 534.585938,569.674316 
	C534.434265,569.680664 534.282654,569.687012 534.130981,569.693359 
	C534.130981,562.671448 534.130981,555.649597 534.358459,548.348694 
z"/>
<path fill="#232323" 
	d="
M652.687073,545.310425 
	C652.989258,566.364990 652.993958,587.709778 652.977783,609.521301 
	C652.637390,608.757690 652.042908,607.528137 652.039368,606.296814 
	C651.983643,586.708130 651.999878,567.119141 652.022217,547.530273 
	C652.022949,546.886902 652.261780,546.243835 652.687073,545.310425 
z"/>
<path fill="#232323" 
	d="
M700.149536,621.956482 
	C701.212097,621.292175 701.877197,620.660950 702.542297,620.029724 
	C702.754272,620.241882 702.966309,620.454041 703.178284,620.666199 
	C702.350525,621.431213 701.527222,622.858521 700.694336,622.864075 
	C681.807983,622.990540 662.920654,622.961365 644.033936,621.989624 
	C662.606689,621.989624 681.179382,621.989624 700.149536,621.956482 
z"/>
<path fill="#F9F9F9" 
	d="
M484.933655,730.021973 
	C483.784485,730.297119 482.544434,730.749695 482.123566,730.346741 
	C479.414093,727.752502 476.883942,724.970886 473.384064,721.293823 
	C480.276520,721.293823 485.895691,721.293823 492.504303,721.293823 
	C489.933807,724.297485 487.577698,727.050598 484.933655,730.021973 
z"/>
<path fill="#DDDCDF" 
	d="
M770.471436,825.401611 
	C776.239929,824.910706 781.816406,824.648865 787.381836,824.797729 
	C788.422424,824.825500 789.419006,826.499451 790.435852,827.413757 
	C790.156677,827.888672 789.877441,828.363525 789.598206,828.838440 
	C783.849731,828.838440 778.096497,828.947876 772.358521,828.702820 
	C771.623779,828.671448 770.967896,826.794556 770.471436,825.401611 
z"/>
<path fill="#DDDCDF" 
	d="
M778.083740,832.745239 
	C781.219177,832.705505 783.893982,832.473755 786.522461,832.725464 
	C787.649536,832.833435 788.680298,833.946838 789.754822,834.603394 
	C788.772766,835.369202 787.816406,836.752991 786.804260,836.795044 
	C782.165894,836.987854 777.505981,836.913513 772.868530,836.663025 
	C771.966919,836.614319 771.130798,835.353943 770.264465,834.652405 
	C771.216858,834.027771 772.098938,833.087097 773.138916,832.855530 
	C774.564636,832.538086 776.110168,832.758911 778.083740,832.745239 
z"/>
<path fill="#DDDCDF" 
	d="
M338.223633,842.094116 
	C337.480835,843.342773 336.621216,844.775452 335.717316,844.803955 
	C329.434570,845.001953 323.142609,844.908447 315.216675,844.908447 
	C316.754089,842.987549 317.526886,841.180664 318.309601,841.176392 
	C324.900818,841.140076 331.493835,841.433777 338.223633,842.094116 
z"/>
<path fill="#EDEDED" 
	d="
M336.875702,833.840759 
	C337.655640,834.879700 337.945984,835.859924 338.468994,837.625549 
	C330.691620,836.413879 323.258759,839.001343 316.499390,835.896301 
	C316.549042,835.191528 316.598694,834.486755 316.648315,833.781982 
	C323.227600,833.781982 329.806854,833.781982 336.875702,833.840759 
z"/>
<path fill="#232323" 
	d="
M489.187744,694.979248 
	C480.207031,694.981506 471.632874,694.981506 463.058716,694.981506 
	C463.060974,694.744080 463.063202,694.506714 463.065460,694.269287 
	C472.364258,694.269287 481.663055,694.269287 492.281647,694.269287 
	C490.520630,694.733093 490.057495,694.855042 489.187744,694.979248 
z"/>
<path fill="#232323" 
	d="
M501.296814,694.867432 
	C501.214996,694.584839 501.310242,694.194519 501.511292,694.129028 
	C501.700409,694.067505 502.001129,694.348633 502.252747,694.479004 
	C502.008545,694.619873 501.764313,694.760681 501.296814,694.867432 
z"/>
<path fill="#EDEDED" 
	d="
M731.965698,834.975464 
	C729.919189,837.541138 728.271851,837.472046 726.803955,834.893860 
	C725.596558,832.773071 724.373413,830.661255 722.892273,828.084717 
	C727.454773,828.084717 731.432434,828.084717 736.232422,828.084717 
	C734.679321,830.612488 733.429871,832.646118 731.965698,834.975464 
z"/>
<path fill="#DDDCDF" 
	d="
M228.884552,823.448242 
	C229.040115,825.275940 229.040115,826.718506 229.040115,828.281128 
	C223.647522,829.921265 223.637772,824.749634 221.310059,822.328430 
	C223.783035,822.573303 226.256027,822.818237 228.884552,823.448242 
z"/>
<path fill="#DDDCDF" 
	d="
M213.341003,823.432495 
	C217.950836,821.814697 218.605515,825.264221 220.245010,828.338867 
	C217.626007,828.338867 215.470856,828.338867 212.869492,828.338867 
	C212.973557,826.647095 213.060867,825.227539 213.341003,823.432495 
z"/>
<path fill="#EDEDED" 
	d="
M217.314758,835.298828 
	C218.354706,836.565002 219.175797,837.481201 220.502640,838.961609 
	C217.206467,838.961609 214.709839,838.961609 211.883484,838.961609 
	C212.034454,836.954651 212.165161,835.217102 212.413239,831.919128 
	C214.441833,833.231628 215.768875,834.090210 217.314758,835.298828 
z"/>
<path fill="#DDDCDF" 
	d="
M228.027252,837.644409 
	C226.551895,838.072388 224.713684,838.593384 223.873520,837.901855 
	C222.480881,836.755493 221.730347,834.829102 220.459595,832.840576 
	C223.215302,832.840576 225.430588,832.840576 228.112900,832.840576 
	C228.112900,834.400330 228.112900,835.796387 228.027252,837.644409 
z"/>
<path fill="#DDDCDF" 
	d="
M842.067566,811.306274 
	C845.315308,811.902283 850.335144,809.365967 848.956726,816.239014 
	C844.880310,816.239014 840.824951,816.239014 836.401978,816.239014 
	C836.287415,814.829895 836.172913,813.421143 836.000793,811.304443 
	C838.097778,811.304443 839.855164,811.304443 842.067566,811.306274 
z"/>
<path fill="#EDEDED" 
	d="
M844.846130,820.113892 
	C848.754944,819.723633 849.867676,821.311157 848.920837,824.971802 
	C845.003906,824.971802 840.929810,824.971802 836.451233,824.971802 
	C836.451233,823.631958 836.451233,822.117432 836.451233,820.111938 
	C839.147217,820.111938 841.762634,820.111938 844.846130,820.113892 
z"/>
<path fill="#EDEDED" 
	d="
M286.038788,838.780090 
	C283.417725,840.132324 280.801575,841.006287 277.445068,842.127625 
	C277.445068,832.084534 277.445068,823.371765 277.445068,814.075317 
	C280.032562,813.956177 282.588745,813.838440 286.043732,813.679382 
	C286.043732,822.139709 286.043732,830.220764 286.038788,838.780090 
z"/>
<path fill="#DDDCDF" 
	d="
M559.598389,844.957458 
	C554.663269,844.927124 550.179993,845.056274 545.722046,844.779297 
	C544.317932,844.692017 542.981628,843.515320 541.614258,842.837219 
	C542.908813,842.214172 544.184326,841.106140 545.501282,841.054504 
	C550.463379,840.859741 555.443726,840.899475 560.405945,841.112976 
	C561.513367,841.160583 562.575134,842.270386 563.657959,842.891235 
	C562.458618,843.580811 561.259277,844.270447 559.598389,844.957458 
z"/>
<path fill="#EDEDED" 
	d="
M543.203491,833.853638 
	C549.183472,833.789612 554.687622,833.644714 560.178589,833.851807 
	C561.336548,833.895447 562.445923,835.229431 563.577637,835.968933 
	C563.307983,836.379883 563.038330,836.790894 562.768677,837.201904 
	C556.816956,837.201904 550.865234,837.213013 544.913574,837.196411 
	C542.583374,837.189880 540.783081,836.769836 543.203491,833.853638 
z"/>
<path fill="#FEFEFE" 
	d="
M538.424683,829.988647 
	C539.552002,828.077209 541.141602,826.141785 543.861145,822.830444 
	C545.858582,825.425232 547.401184,827.429138 548.595581,829.751953 
	C545.127258,830.035522 542.007141,830.000061 538.424683,829.988647 
z"/>
<path fill="#1E1E1F" 
	d="
M658.987610,737.364014 
	C658.948669,738.421753 658.909912,739.063049 658.871155,739.704285 
	C658.700073,739.705078 658.528992,739.705872 658.357910,739.706665 
	C658.357910,732.553894 658.357910,725.401123 658.357910,718.248413 
	C658.567871,718.239319 658.777832,718.230164 658.987793,718.221069 
	C658.987793,724.463196 658.987793,730.705322 658.987610,737.364014 
z"/>
<path fill="#1C1C1C" 
	d="
M666.618164,746.989746 
	C663.801208,746.992004 661.407776,746.992004 659.014404,746.992004 
	C658.996338,746.485474 658.978271,745.978943 658.960144,745.472412 
	C662.389709,745.309692 665.819275,745.146973 669.248779,744.984314 
	C669.314575,745.424622 669.380310,745.864990 669.446045,746.305359 
	C668.644653,746.532715 667.843201,746.760071 666.618164,746.989746 
z"/>
<path fill="#232323" 
	d="
M963.019653,841.190857 
	C963.017273,832.879211 963.017273,824.974487 963.017273,817.069763 
	C963.252991,817.072388 963.488770,817.075012 963.724487,817.077637 
	C963.724487,825.706970 963.724487,834.336304 963.724487,844.279114 
	C963.264771,842.524048 963.143433,842.060913 963.019653,841.190857 
z"/>
<path fill="#DDDCDF" 
	d="
M596.291565,836.967224 
	C595.003723,836.444153 594.157043,835.921875 593.310425,835.399597 
	C594.098389,834.813721 595.028625,833.609009 595.649231,833.751587 
	C598.050354,834.303345 601.867065,831.563171 603.212952,836.968079 
	C600.619385,836.968079 598.676086,836.968079 596.291565,836.967224 
z"/>
<path fill="#EDEDED" 
	d="
M596.289307,826.687744 
	C598.691833,827.073486 600.657593,827.454712 602.601868,827.925049 
	C602.628296,827.931458 602.443054,829.570007 602.254517,829.592529 
	C599.993347,829.862549 597.708740,830.106262 595.440002,830.036865 
	C594.781494,830.016724 594.154114,828.979065 593.512451,828.407837 
	C594.291992,827.835388 595.071472,827.262939 596.289307,826.687744 
z"/>
<path fill="#131313" 
	d="
M382.009460,595.000000 
	C382.009338,603.486877 381.872498,611.477234 382.073578,619.459045 
	C382.159210,622.857666 381.199158,624.130615 377.611542,624.085876 
	C370.002350,623.990906 370.001221,624.182434 370.001587,616.681152 
	C370.002655,594.550781 370.145630,572.418701 369.887970,550.291321 
	C369.833435,545.609375 371.502655,544.659424 375.653900,544.906006 
	C379.269623,545.120667 382.311890,544.405945 382.149902,550.076904 
	C381.727234,564.873901 382.008789,579.690918 382.009460,595.000000 
z"/>
<path fill="#4A4A4A" 
	d="
M540.217407,812.312500 
	C539.082581,814.815002 537.997437,817.716614 534.125366,816.564636 
	C534.731201,813.113220 536.352966,811.354248 540.217407,812.312500 
z"/>
<path fill="#EDEDED" 
	d="
M342.640625,817.200073 
	C342.652313,819.112061 342.652313,820.583435 342.652313,822.448975 
	C339.759735,822.448975 337.076660,822.448975 334.004395,822.448975 
	C334.004395,819.517517 334.004395,816.521179 334.004395,812.884766 
	C337.137177,814.305298 342.134521,809.688354 342.640625,817.200073 
z"/>
<path fill="#EDEDED" 
	d="
M561.073730,812.930969 
	C563.501221,812.940857 565.453552,812.940857 567.721436,812.940857 
	C567.721436,816.308411 567.721436,819.334656 567.721436,822.592102 
	C564.882690,822.592102 562.157715,822.592102 558.020569,822.592102 
	C558.959290,819.070557 559.778931,815.995789 561.073730,812.930969 
z"/>
<path fill="#EDEDED" 
	d="
M935.344971,837.650024 
	C934.966309,834.901367 934.966309,832.439758 934.966309,829.728516 
	C939.476807,829.728516 943.741699,829.728516 948.319946,829.728516 
	C948.319946,832.379272 948.319946,834.794006 948.319946,837.937134 
	C944.199158,837.937134 939.961365,837.937134 935.344971,837.650024 
z"/>
</svg>